<?xml version="1.0" encoding="UTF-8" standalone="no"?>
<!DOCTYPE svg PUBLIC "-//W3C//DTD SVG 1.1//EN" "http://www.w3.org/Graphics/SVG/1.1/DTD/svg11.dtd">
<!-- Created with Vectornator (http://vectornator.io/) -->
<svg height="100%" stroke-miterlimit="10" style="fill-rule:nonzero;clip-rule:evenodd;stroke-linecap:round;stroke-linejoin:round;" version="1.1" viewBox="0 0 512 512" width="100%" xml:space="preserve" xmlns="http://www.w3.org/2000/svg" xmlns:vectornator="http://vectornator.io" xmlns:xlink="http://www.w3.org/1999/xlink">
<defs/>
<g id="Katman-1" vectornator:layerName="Katman 1">
<g opacity="1" vectornator:layerName="Important Mail">
<path d="M373.69 415.636L46.2604 415.636C28.8104 415.636 14.535 401.361 14.535 383.911L14.535 181.261C14.535 163.812 28.8104 149.536 46.2604 149.536L373.69 149.536C391.14 149.536 405.416 163.812 405.416 181.261L405.416 383.918C405.416 401.361 391.14 415.636 373.69 415.636Z" fill="#fefdef" fill-rule="nonzero" opacity="1" stroke="none" vectornator:layerName="path"/>
<path d="M330.266 156.422C330.266 122.182 367.273 94.4263 412.934 94.4263C458.595 94.4263 495.602 122.182 495.602 156.422C495.602 190.663 458.595 218.418 412.934 218.418L402.602 218.418C393.812 227.208 377.545 235.997 360.156 238.431C356.621 238.927 353.929 235.277 355.418 232.034C358.722 224.849 361.264 214.38 361.264 204.863L361.264 204.863C341.659 193.083 330.252 175.259 330.266 156.422" fill="#2a9d8f" fill-rule="nonzero" opacity="1" stroke="none" vectornator:layerName="path"/>
<path d="M502.393 157.435C502.393 119.497 462.259 88.6345 412.927 88.6345C369.285 88.6345 332.897 112.814 325.073 144.655L48.1298 144.655C26.8866 144.655 9.60661 161.935 9.60661 183.178L9.60661 384.842C9.60661 406.085 26.8866 423.365 48.1298 423.365L378.959 423.365C400.202 423.365 417.482 406.085 417.482 384.842L417.482 226.052C464.693 224.21 502.393 194.184 502.393 157.435ZM323.523 158.251C323.754 174.375 331.157 189.487 344.242 201.512L215.39 307.592L31.6927 164.586C36.0909 160.691 41.8078 158.251 48.1366 158.251L323.523 158.251ZM391.847 406.072C391.657 405.61 391.392 405.175 390.998 404.821L274.075 300.359C272.682 299.115 270.534 299.231 269.276 300.631C268.025 302.031 268.148 304.173 269.548 305.43L385.301 408.852C383.269 409.389 381.168 409.77 378.966 409.77L48.1366 409.77C44.2143 409.77 40.5502 408.777 37.2397 407.153L151.096 305.43C152.497 304.173 152.619 302.031 151.368 300.631C150.117 299.231 147.962 299.115 146.569 300.359L31.4412 403.217C26.4244 398.655 23.2158 392.143 23.2158 384.842L23.2158 183.178C23.2158 178.216 24.7113 173.607 27.2197 169.719L213.364 314.628C213.976 315.104 214.717 315.341 215.451 315.341C216.219 315.341 216.987 315.083 217.613 314.567L349.524 205.972C351.095 207.182 352.638 208.398 354.337 209.527C353.827 216.576 351.937 224.36 349.239 230.219C347.499 233.999 347.961 238.417 350.435 241.755C352.57 244.637 355.921 246.296 359.429 246.296C359.939 246.296 360.448 246.262 360.958 246.187C376.505 244.046 392.792 236.813 403.886 227.391L403.886 384.842C403.886 393.856 399.033 401.694 391.847 406.072ZM412.927 212.633L402.595 212.633C400.793 212.633 399.06 213.347 397.789 214.625C391.032 221.375 378.021 229.043 363.201 232.034C366.24 223.979 368.062 214.319 368.062 205.87C368.062 203.477 366.811 201.267 364.765 200.044C347.145 189.46 337.05 173.933 337.064 157.442L337.064 157.435C337.064 126.995 371.094 102.23 412.927 102.23C454.761 102.23 488.798 127.001 488.798 157.435C488.798 187.869 454.761 212.633 412.927 212.633Z" fill="#1f212b" fill-rule="nonzero" opacity="1" stroke="none" vectornator:layerName="path"/>
<path d="M420.84 124.262L405.015 124.262C403.254 124.262 401.901 125.819 402.146 127.566L408.094 169.372C408.298 170.793 409.515 171.847 410.949 171.847L414.906 171.847C416.34 171.847 417.557 170.793 417.761 169.372L423.709 127.566C423.96 125.819 422.608 124.262 420.84 124.262ZM412.934 172.921C411.418 172.921 410.12 173.464 409.032 174.552C407.945 175.64 407.401 176.931 407.401 178.413C407.401 180.004 407.931 181.336 408.991 182.397C410.052 183.457 411.371 183.987 412.934 183.987C414.477 183.987 415.776 183.457 416.836 182.397C417.924 181.309 418.468 179.99 418.468 178.454C418.468 176.938 417.924 175.64 416.836 174.552C415.749 173.464 414.443 172.921 412.934 172.921Z" fill="#1f212b" fill-rule="nonzero" opacity="1" stroke="none" vectornator:layerName="path"/>
</g>
</g>
</svg>
