<?xml version="1.0" encoding="UTF-8" standalone="no"?>
<!DOCTYPE svg PUBLIC "-//W3C//DTD SVG 1.1//EN" "http://www.w3.org/Graphics/SVG/1.1/DTD/svg11.dtd">
<!-- Created with Vectornator (http://vectornator.io/) -->
<svg height="100%" stroke-miterlimit="10" style="fill-rule:nonzero;clip-rule:evenodd;stroke-linecap:round;stroke-linejoin:round;" version="1.1" viewBox="0 0 128 128" width="100%" xml:space="preserve" xmlns="http://www.w3.org/2000/svg" xmlns:vectornator="http://vectornator.io" xmlns:xlink="http://www.w3.org/1999/xlink">
<defs/>
<g id="Katman-1" vectornator:layerName="Katman 1">
<g opacity="1" vectornator:layerName="Instagram">
<path d="M37.9016 121.422L90.1032 121.422C107.402 121.422 121.422 107.402 121.422 90.0984L121.422 37.8968C121.422 20.5984 107.402 6.5778 90.0984 6.5778L37.8968 6.5778C20.5984 6.5778 6.5778 20.5984 6.5778 37.9016L6.5778 90.1032C6.5778 107.402 20.5984 121.422 37.9016 121.422Z" fill="none" opacity="1" stroke="#ffffff" stroke-linecap="butt" stroke-linejoin="miter" stroke-width="9.57037" vectornator:layerName="path"/>
<path d="M64 35.2889C48.1433 35.2889 35.2889 48.1433 35.2889 64C35.2889 79.8567 48.1433 92.7111 64 92.7111C79.8567 92.7111 92.7111 79.8567 92.7111 64C92.7111 48.1433 79.8567 35.2889 64 35.2889Z" fill="none" opacity="1" stroke="#ffffff" stroke-linecap="butt" stroke-linejoin="miter" stroke-width="9.57037" vectornator:layerName="path"/>
<path d="M99.8889 20.9333C95.9247 20.9333 92.7111 24.1469 92.7111 28.1111C92.7111 32.0753 95.9247 35.2889 99.8889 35.2889C103.853 35.2889 107.067 32.0753 107.067 28.1111C107.067 24.1469 103.853 20.9333 99.8889 20.9333Z" fill="#ffffff" fill-rule="nonzero" opacity="1" stroke="none" vectornator:layerName="path"/>
</g>
</g>
</svg>
