<?xml version="1.0" encoding="UTF-8" standalone="no"?>
<!DOCTYPE svg PUBLIC "-//W3C//DTD SVG 1.1//EN" "http://www.w3.org/Graphics/SVG/1.1/DTD/svg11.dtd">
<!-- Created with Vectornator (http://vectornator.io/) -->
<svg height="100%" stroke-miterlimit="10" style="fill-rule:nonzero;clip-rule:evenodd;stroke-linecap:round;stroke-linejoin:round;" version="1.1" viewBox="0 0 512 512" width="100%" xml:space="preserve" xmlns="http://www.w3.org/2000/svg" xmlns:vectornator="http://vectornator.io" xmlns:xlink="http://www.w3.org/1999/xlink">
<defs/>
<g id="Katman-1" vectornator:layerName="Katman 1">
<path d="M51.1643 233.681C51.1643 233.681 83.883 399.565 224.901 408.726C224.901 374.699 218.684 353.431 249.44 313.515C175.168 222.23 51.1643 233.681 51.1643 233.681Z" fill="#2a9d8f" fill-rule="nonzero" opacity="1" stroke="none" vectornator:layerName="Eğri 2"/>
<path d="M460.836 233.681C460.836 233.681 409.761 442.426 235.077 408.726C231.771 375.68 240.931 340.343 261.577 313.187C321.13 233.22 460.836 233.681 460.836 233.681Z" fill="#2a9d8f" fill-rule="nonzero" opacity="1" stroke="none" vectornator:layerName="Eğri 1"/>
<path d="M130.993 235.024C130.993 235.024 131.32 163.23 134.271 132.087C158.53 147.822 256.549 196.34 274.252 279.608L254.516 305.88C190.145 233.681 130.993 235.024 130.993 235.024Z" fill="#2a9d8f" fill-rule="nonzero" opacity="1" stroke="none" vectornator:layerName="Eğri 3"/>
<path d="M259.296 222.449L284.219 275.453C284.219 275.453 317.566 245.616 371.623 237.542C373.027 212.269 377.941 148.735 367.059 133.641C295.451 170.147 259.296 222.449 259.296 222.449Z" fill="#2a9d8f" fill-rule="nonzero" opacity="1" stroke="none" vectornator:layerName="Eğri 4"/>
<path d="M211.908 173.307L254.516 218.983L292.994 174.009L252.276 99.5923L211.908 173.307Z" fill="#2a9d8f" fill-rule="nonzero" opacity="1" stroke="none" vectornator:layerName="Eğri 5"/>
</g>
</svg>
