<?xml version="1.0" encoding="UTF-8" standalone="no"?>
<!DOCTYPE svg PUBLIC "-//W3C//DTD SVG 1.1//EN" "http://www.w3.org/Graphics/SVG/1.1/DTD/svg11.dtd">
<!-- Created with Vectornator (http://vectornator.io/) -->
<svg height="100%" stroke-miterlimit="10" style="fill-rule:nonzero;clip-rule:evenodd;stroke-linecap:round;stroke-linejoin:round;" version="1.1" viewBox="0 0 512 512" width="100%" xml:space="preserve" xmlns="http://www.w3.org/2000/svg" xmlns:vectornator="http://vectornator.io" xmlns:xlink="http://www.w3.org/1999/xlink">
<defs/>
<g id="Katman-1" vectornator:layerName="Katman 1">
<g opacity="1" vectornator:layerName="Grupla 1">
<g opacity="1" vectornator:layerName="Push Notifications">
<path d="M117.573 21.4497L284.028 21.4497C309.1 21.4497 329.425 41.7746 329.425 66.8466L329.425 445.153C329.425 470.225 309.1 490.55 284.028 490.55L117.573 490.55C92.5013 490.55 72.1765 470.225 72.1765 445.153L72.1765 66.8466C72.1765 41.7746 92.5013 21.4497 117.573 21.4497Z" fill="#acb7d0" fill-rule="nonzero" opacity="1" stroke="none" vectornator:layerName="rect"/>
<path d="M72.1765 414.889L329.425 414.889L329.425 414.889L329.425 445.153C329.425 470.225 309.1 490.55 284.028 490.55L117.573 490.55C92.5013 490.55 72.1765 470.225 72.1765 445.153L72.1765 414.889L72.1765 414.889Z" fill="#acb7d0" fill-rule="nonzero" opacity="1" stroke="none" vectornator:layerName="path"/>
<path d="M72.1765 81.9788L329.425 81.9788L329.425 414.889L72.1765 414.889L72.1765 81.9788Z" fill="#c5e4fa" fill-rule="nonzero" opacity="1" stroke="none" vectornator:layerName="path"/>
<path d="M193.235 414.889L332.3 275.899L329.425 165.206L79.7426 414.889L193.235 414.889ZM72.1765 392.19L329.425 134.942L329.425 89.545L72.1765 346.794L72.1765 392.19ZM72.1765 316.529L306.727 81.9788L268.896 81.9788L72.1765 278.698L72.1765 316.529Z" fill="#e3f2ff" fill-rule="nonzero" opacity="1" stroke="none" vectornator:layerName="path"/>
<path d="M128.923 112.243L138.305 129.343L155.404 138.725L138.305 148.107L128.923 165.206L119.541 148.107L102.441 138.725L119.541 129.343L128.923 112.243ZM188.846 211.814L195.278 223.693L207.156 230.124L195.278 236.631L188.846 248.434L182.339 236.631L170.536 230.124L182.339 223.693L188.846 211.814ZM122.491 291.561L126.88 299.657L134.975 304.045L126.88 308.509L122.491 316.529L118.103 308.509L110.007 304.045L118.103 299.657L122.491 291.561Z" fill="#fff8f8" fill-rule="nonzero" opacity="1" stroke="none" vectornator:layerName="path"/>
<path d="M465.616 324.095L354.469 324.095C354.469 324.095 321.859 377.058 299.161 377.058C306.727 354.36 296.815 324.095 296.815 324.095L238.632 324.095L238.632 127.376L465.616 127.376L465.616 324.095Z" fill="#ffffff" fill-rule="nonzero" opacity="1" stroke="none" vectornator:layerName="path"/>
<path d="M110.007 346.794C105.829 346.794 102.441 350.181 102.441 354.36L102.441 369.492C102.441 373.671 105.829 377.058 110.007 377.058C114.186 377.058 117.573 373.671 117.573 369.492L117.573 354.36C117.573 350.181 114.186 346.794 110.007 346.794ZM147.838 346.794C143.659 346.794 140.272 350.181 140.272 354.36L140.272 369.492C140.272 373.671 143.659 377.058 147.838 377.058C152.017 377.058 155.404 373.671 155.404 369.492L155.404 354.36C155.404 350.181 152.017 346.794 147.838 346.794ZM185.669 346.794C181.49 346.794 178.102 350.181 178.102 354.36L178.102 369.492C178.102 373.671 181.49 377.058 185.669 377.058C189.847 377.058 193.235 373.671 193.235 369.492L193.235 354.36C193.235 350.181 189.847 346.794 185.669 346.794ZM223.499 346.794C219.321 346.794 215.933 350.181 215.933 354.36L215.933 369.492C215.933 373.671 219.321 377.058 223.499 377.058C227.678 377.058 231.065 373.671 231.065 369.492L231.065 354.36C231.065 350.181 227.678 346.794 223.499 346.794ZM261.33 346.794C257.151 346.794 253.764 350.181 253.764 354.36L253.764 369.492C253.764 373.671 257.151 377.058 261.33 377.058C265.509 377.058 268.896 373.671 268.896 369.492L268.896 354.36C268.896 350.181 265.509 346.794 261.33 346.794ZM200.801 437.587C192.443 437.587 185.669 444.362 185.669 452.72C185.669 461.077 192.443 467.852 200.801 467.852C209.158 467.852 215.933 461.077 215.933 452.72C215.933 444.362 209.158 437.587 200.801 437.587ZM238.632 44.1482L208.367 44.1482C204.188 44.1482 200.801 47.5356 200.801 51.7143C200.801 55.8929 204.188 59.2804 208.367 59.2804L238.632 59.2804C242.81 59.2804 246.198 55.8929 246.198 51.7143C246.198 47.5356 242.81 44.1482 238.632 44.1482ZM178.102 44.1482L162.97 44.1482C158.791 44.1482 155.404 47.5356 155.404 51.7143C155.404 55.8929 158.791 59.2804 162.97 59.2804L178.102 59.2804C182.281 59.2804 185.669 55.8929 185.669 51.7143C185.669 47.5356 182.281 44.1482 178.102 44.1482Z" fill="#264653" fill-rule="nonzero" opacity="1" stroke="none" vectornator:layerName="path"/>
<path d="M450.483 119.81L336.991 119.81L336.991 66.8466C336.991 37.5959 313.279 13.8836 284.028 13.8836L117.573 13.8836C88.3227 13.8836 64.6103 37.5959 64.6103 66.8466L64.6103 445.153C64.6103 474.404 88.3227 498.116 117.573 498.116L284.028 498.116C313.279 498.116 336.991 474.404 336.991 445.153L336.991 364.423C346.596 355.432 353.778 344.164 357.874 331.661L450.483 331.661C463.019 331.661 473.182 321.499 473.182 308.963L473.182 142.508C473.182 129.972 463.019 119.81 450.483 119.81ZM79.7426 66.8466C79.7426 45.9533 96.68 29.0159 117.573 29.0159L284.028 29.0159C304.922 29.0159 321.859 45.9533 321.859 66.8466L321.859 74.4127L79.7426 74.4127L79.7426 66.8466ZM321.859 445.153C321.859 466.047 304.922 482.984 284.028 482.984L117.573 482.984C96.68 482.984 79.7426 466.047 79.7426 445.153L79.7426 422.455L321.859 422.455L321.859 445.153ZM321.859 407.323L79.7426 407.323L79.7426 89.545L321.859 89.545L321.859 119.81L253.764 119.81C241.228 119.81 231.065 129.972 231.065 142.508L231.065 308.963C231.065 321.499 241.228 331.661 253.764 331.661L293.183 331.661C293.799 346.349 290.839 360.967 284.558 374.259C283.629 376.591 283.917 379.231 285.327 381.308C286.737 383.384 289.085 384.627 291.594 384.624L292.654 384.624C302.869 383.258 312.759 380.081 321.859 375.242L321.859 407.323ZM458.049 308.963C458.049 313.142 454.662 316.529 450.483 316.529L352.124 316.529C348.4 316.475 345.19 319.139 344.557 322.809C339.753 343.84 323.949 360.628 303.246 366.693C312.78 336.428 306.651 322.355 305.819 320.69C304.549 318.17 301.982 316.566 299.161 316.529L253.764 316.529C249.585 316.529 246.198 313.142 246.198 308.963L246.198 142.508C246.198 138.329 249.585 134.942 253.764 134.942L450.483 134.942C454.662 134.942 458.049 138.329 458.049 142.508L458.049 308.963Z" fill="#264653" fill-rule="nonzero" opacity="1" stroke="none" vectornator:layerName="path"/>
</g>
</g>
<g opacity="1" vectornator:layerName="Xbox Cross">
<path d="M337.537 294.053C334.578 294.053 332.17 291.645 332.17 288.686L332.17 251.117L294.6 251.117C291.641 251.117 289.233 248.709 289.233 245.75L289.233 209.969C289.233 207.01 291.641 204.602 294.6 204.602L332.17 204.602L332.17 167.032C332.17 164.073 334.578 161.665 337.537 161.665L373.318 161.665C376.277 161.665 378.685 164.073 378.685 167.032L378.685 204.602L416.254 204.602C419.213 204.602 421.621 207.01 421.621 209.969L421.621 245.75C421.621 248.709 419.213 251.117 416.254 251.117L378.685 251.117L378.685 288.686C378.685 291.645 376.277 294.053 373.318 294.053L337.537 294.053Z" fill="#e76f51" fill-rule="nonzero" opacity="1" stroke="none" vectornator:layerName="path"/>
<path d="M373.318 163.454C375.289 163.454 376.896 165.061 376.896 167.032L376.896 202.813L376.896 206.391L380.474 206.391L416.254 206.391C418.226 206.391 419.832 207.997 419.832 209.969L419.832 245.75C419.832 247.721 418.226 249.328 416.254 249.328L380.474 249.328L376.896 249.328L376.896 252.906L376.896 288.686C376.896 290.658 375.289 292.264 373.318 292.264L337.537 292.264C335.566 292.264 333.959 290.658 333.959 288.686L333.959 252.906L333.959 249.328L330.381 249.328L294.6 249.328C292.629 249.328 291.022 247.721 291.022 245.75L291.022 209.969C291.022 207.997 292.629 206.391 294.6 206.391L330.381 206.391L333.959 206.391L333.959 202.813L333.959 167.032C333.959 165.061 335.566 163.454 337.537 163.454L373.318 163.454M373.318 159.876L337.537 159.876C333.583 159.876 330.381 163.079 330.381 167.032L330.381 202.813L294.6 202.813C290.647 202.813 287.444 206.015 287.444 209.969L287.444 245.75C287.444 249.703 290.647 252.906 294.6 252.906L330.381 252.906L330.381 288.686C330.381 292.64 333.583 295.842 337.537 295.842L373.318 295.842C377.271 295.842 380.474 292.64 380.474 288.686L380.474 252.906L416.254 252.906C420.208 252.906 423.41 249.703 423.41 245.75L423.41 209.969C423.41 206.015 420.208 202.813 416.254 202.813L380.474 202.813L380.474 167.032C380.474 163.079 377.271 159.876 373.318 159.876L373.318 159.876Z" fill="#e76f51" fill-rule="nonzero" opacity="1" stroke="none" vectornator:layerName="path"/>
</g>
</g>
</svg>
