<?xml version="1.0" encoding="UTF-8" standalone="no"?>
<!DOCTYPE svg PUBLIC "-//W3C//DTD SVG 1.1//EN" "http://www.w3.org/Graphics/SVG/1.1/DTD/svg11.dtd">
<!-- Created with Vectornator (http://vectornator.io/) -->
<svg height="100%" stroke-miterlimit="10" style="fill-rule:nonzero;clip-rule:evenodd;stroke-linecap:round;stroke-linejoin:round;" version="1.1" viewBox="0 0 512 512" width="100%" xml:space="preserve" xmlns="http://www.w3.org/2000/svg" xmlns:vectornator="http://vectornator.io" xmlns:xlink="http://www.w3.org/1999/xlink">
<defs/>
<g id="Katman-1" vectornator:layerName="Katman 1">
<g opacity="1" vectornator:layerName="Laptop 1">
<g opacity="1" vectornator:layerName="g">
<path d="M38.094 383.583L38.094 125.898C38.094 106.788 50.3613 91.2478 65.4354 91.2478L446.556 91.2478C461.639 91.2478 473.897 106.788 473.897 125.898L473.897 383.583L38.094 383.583Z" fill="#fdfcef" fill-rule="nonzero" opacity="1" stroke="none" vectornator:layerName="path"/>
<path d="M446.556 97.525C457.98 97.525 467.629 110.519 467.629 125.898L467.629 377.314L44.3711 377.305L44.3711 125.898C44.3711 110.519 54.02 97.525 65.4443 97.525L446.556 97.525M446.556 84.9707L65.4443 84.9707C46.9448 84.9707 31.8169 103.39 31.8169 125.898L31.8169 389.86L480.183 389.869L480.183 125.898C480.183 103.39 465.055 84.9707 446.556 84.9707L446.556 84.9707Z" fill="#472b29" fill-rule="nonzero" opacity="1" stroke="none" vectornator:layerName="path"/>
</g>
<path d="M435.346 154.1L435.346 345.023L76.6535 345.023L76.6535 320.731L76.6535 244.356L76.6535 129.807L427.662 129.807L435.346 129.807L435.346 154.1Z" fill="#e4e4f9" fill-rule="nonzero" opacity="1" stroke="none" vectornator:layerName="path"/>
<path d="M431.428 345.023L81.1372 345.023C78.6622 345.023 76.6535 343.014 76.6535 340.539L76.6535 295.703C76.6535 293.228 78.6622 291.219 81.1372 291.219C83.6121 291.219 85.6208 293.228 85.6208 295.703L85.6208 336.056L426.944 336.056L426.944 161.193C426.944 158.718 428.953 156.709 431.428 156.709C433.903 156.709 435.911 158.718 435.911 161.193L435.911 340.539C435.911 343.014 433.903 345.023 431.428 345.023Z" fill="#472b29" fill-rule="nonzero" opacity="1" stroke="none" vectornator:layerName="path"/>
<path d="M80.5812 246.383C78.1062 246.383 76.0975 244.374 76.0975 241.899L76.0975 125.324C76.0975 122.849 78.1062 120.84 80.5812 120.84L430.863 120.84C433.338 120.84 435.346 122.849 435.346 125.324C435.346 127.799 433.338 129.807 430.863 129.807L85.0649 129.807L85.0649 241.899C85.0649 244.374 83.0562 246.383 80.5812 246.383Z" fill="#472b29" fill-rule="nonzero" opacity="1" stroke="none" vectornator:layerName="path"/>
<g opacity="1" vectornator:layerName="g">
<path d="M50.1999 428.419C33.6372 428.419 20.1594 413.641 20.1594 395.464L20.1594 378.202L491.841 378.202L491.841 395.464C491.841 413.632 478.363 428.419 461.8 428.419L50.1999 428.419Z" fill="#e1e0d8" fill-rule="nonzero" opacity="1" stroke="none" vectornator:layerName="path"/>
<path d="M485.564 384.479L485.564 395.464C485.564 410.171 474.901 422.142 461.8 422.142L50.1999 422.142C37.0986 422.142 26.4365 410.171 26.4365 395.464L26.4365 384.479L485.564 384.479M498.118 371.925L13.8822 371.925L13.8822 395.464C13.8822 417.049 30.2207 434.696 50.1999 434.696L461.8 434.696C481.779 434.696 498.118 417.04 498.118 395.464L498.118 371.925L498.118 371.925Z" fill="#472b29" fill-rule="nonzero" opacity="1" stroke="none" vectornator:layerName="path"/>
</g>
<path d="M287.386 407.794L233.582 407.794C231.107 407.794 229.098 405.786 229.098 403.311C229.098 400.836 231.107 398.827 233.582 398.827L287.386 398.827C289.861 398.827 291.869 400.836 291.869 403.311C291.869 405.786 289.861 407.794 287.386 407.794Z" fill="#472b29" fill-rule="nonzero" opacity="1" stroke="none" vectornator:layerName="path"/>
</g>
<g opacity="1" vectornator:layerName="Training">
<path d="M265.869 139.929C267.182 139.929 268.291 141.038 268.291 142.351L268.291 158.139C268.291 159.452 267.182 160.561 265.869 160.561C264.556 160.561 263.447 159.452 263.447 158.139L263.447 142.351C263.443 141.038 264.552 139.929 265.869 139.929M265.869 134.459C261.528 134.459 257.977 138.01 257.977 142.351L257.977 158.139C257.977 162.48 261.528 166.031 265.869 166.031C270.21 166.031 273.761 162.48 273.761 158.139L273.761 142.351C273.761 138.01 270.21 134.459 265.869 134.459L265.869 134.459Z" fill="#472b29" fill-rule="nonzero" opacity="1" stroke="none" vectornator:layerName="path"/>
<path d="M197.52 268.468C194.09 268.468 191.3 265.679 191.3 262.249L191.3 166.856C191.3 163.425 194.09 160.636 197.52 160.636L331.983 160.636C335.413 160.636 338.203 163.425 338.203 166.856L338.203 262.249C338.203 265.679 335.413 268.468 331.983 268.468L197.52 268.468Z" fill="#fffef4" fill-rule="nonzero" opacity="1" stroke="none" vectornator:layerName="path"/>
<path d="M331.983 163.37C333.87 163.37 335.468 164.965 335.468 166.856L335.468 262.252C335.468 264.14 333.874 265.737 331.983 265.737L197.52 265.737C195.633 265.737 194.035 264.143 194.035 262.252L194.035 166.856C194.035 164.968 195.629 163.37 197.52 163.37L331.983 163.37M331.983 157.901L197.52 157.901C192.593 157.901 188.565 161.929 188.565 166.856L188.565 262.252C188.565 267.175 192.593 271.203 197.52 271.203L331.987 271.203C336.91 271.203 340.938 267.175 340.938 262.249L340.938 166.856C340.938 161.929 336.91 157.901 331.983 157.901L331.983 157.901Z" fill="#472b29" fill-rule="nonzero" opacity="1" stroke="none" vectornator:layerName="path"/>
<path d="M196.379 166.887C191.421 166.887 187.393 162.859 187.393 157.901C187.393 152.943 191.421 148.915 196.379 148.915L337.031 148.915C341.989 148.915 346.017 152.943 346.017 157.901C346.017 162.859 341.989 166.887 337.031 166.887L196.379 166.887Z" fill="#2a9d8f" fill-rule="nonzero" opacity="1" stroke="none" vectornator:layerName="path"/>
<path d="M337.031 151.65C340.477 151.65 343.282 154.455 343.282 157.901C343.282 161.347 340.477 164.152 337.031 164.152L196.379 164.152C192.933 164.152 190.128 161.347 190.128 157.901C190.128 154.455 192.933 151.65 196.379 151.65L337.031 151.65M337.031 146.18L196.379 146.18C189.933 146.18 184.658 151.454 184.658 157.901C184.658 164.347 189.933 169.622 196.379 169.622L337.031 169.622C343.477 169.622 348.752 164.347 348.752 157.901C348.752 151.454 343.477 146.18 337.031 146.18L337.031 146.18Z" fill="#472b29" fill-rule="nonzero" opacity="1" stroke="none" vectornator:layerName="path"/>
<path d="M194.426 164.543C186.226 164.543 179.579 171.19 179.579 179.389C179.579 187.589 186.226 194.236 194.426 194.236C202.625 194.236 209.272 187.589 209.272 179.389C209.272 171.19 202.625 164.543 194.426 164.543Z" fill="#fddbbc" fill-rule="nonzero" opacity="1" stroke="none" vectornator:layerName="path"/>
<path d="M194.426 167.277C201.103 167.277 206.538 172.712 206.538 179.389C206.538 186.066 201.103 191.501 194.426 191.501C187.749 191.501 182.314 186.066 182.314 179.389C182.314 172.712 187.749 167.277 194.426 167.277M194.426 161.808C184.717 161.808 176.844 169.68 176.844 179.389C176.844 189.098 184.717 196.971 194.426 196.971C204.135 196.971 212.007 189.098 212.007 179.389C212.007 169.68 204.135 161.808 194.426 161.808L194.426 161.808Z" fill="#472b29" fill-rule="nonzero" opacity="1" stroke="none" vectornator:layerName="path"/>
<path d="M268.659 294.645C267.58 294.645 266.705 293.77 266.705 292.692L266.705 269.25C266.705 268.172 267.58 267.296 268.659 267.296C269.737 267.296 270.612 268.172 270.612 269.25L270.612 292.692C270.612 293.77 269.737 294.645 268.659 294.645Z" fill="#472b29" fill-rule="nonzero" opacity="1" stroke="none" vectornator:layerName="path"/>
<path d="M244.158 308.101C243.818 308.101 243.478 308.015 243.166 307.831C242.236 307.28 241.927 306.089 242.474 305.155L264.185 268.328C264.732 267.398 265.928 267.093 266.861 267.636C267.791 268.187 268.1 269.379 267.553 270.313L245.842 307.14C245.478 307.757 244.826 308.101 244.158 308.101Z" fill="#472b29" fill-rule="nonzero" opacity="1" stroke="none" vectornator:layerName="path"/>
<path d="M293.495 308.101C292.827 308.101 292.175 307.757 291.811 307.14L270.1 270.313C269.549 269.383 269.858 268.187 270.792 267.636C271.718 267.085 272.921 267.39 273.468 268.328L295.179 305.155C295.73 306.085 295.422 307.28 294.488 307.831C294.175 308.015 293.835 308.101 293.495 308.101Z" fill="#472b29" fill-rule="nonzero" opacity="1" stroke="none" vectornator:layerName="path"/>
<g opacity="1" vectornator:layerName="g">
<path d="M206.174 325.12C202.212 325.12 198.935 321.9 198.864 317.939L197.536 268.586C197.493 267.101 196.262 265.827 194.781 265.827C194.039 265.827 193.324 266.128 192.808 266.663C192.293 267.199 192.004 268.004 192.031 268.746L190.355 317.896C190.261 321.889 186.952 325.12 182.982 325.12C181.103 325.12 179.345 324.385 178.04 323.049C176.735 321.709 176.04 319.935 176.086 318.056L177.262 268.578C177.282 267.773 176.942 266.999 176.34 266.464C175.836 266.019 175.192 265.777 174.528 265.777C174.395 265.777 174.262 265.788 174.125 265.808C173.738 265.866 173.434 265.917 173.113 265.917C169.179 265.917 165.983 262.721 165.983 258.787L165.983 223.265C165.991 223.206 166.049 222.78 166.053 222.722C166.335 215.642 173.781 200.342 194.086 200.342C194.086 200.342 194.918 200.366 194.988 200.37C206.287 200.491 212.816 202.491 216.317 204.148C217.168 204.488 217.692 204.757 218.13 205.081L235.121 217.572C235.594 217.916 236.16 218.103 236.742 218.103L252.054 218.103C255.988 218.103 259.184 221.299 259.184 225.234C259.184 229.168 255.988 232.364 252.054 232.364L234.293 232.364C233.519 232.364 232.734 232.216 231.886 231.907C231.765 231.864 231.64 231.825 231.507 231.801C230.48 231.586 229.554 231.184 228.753 230.594L216.18 221.35C215.699 220.995 215.129 220.815 214.559 220.815C214.141 220.815 213.715 220.913 213.324 221.108C212.406 221.573 211.824 222.518 211.824 223.55L211.824 244.968C211.824 246.41 211.906 250.242 211.957 252.794L213.125 318.033C213.16 319.916 212.453 321.697 211.136 323.033C209.819 324.381 208.057 325.12 206.174 325.12Z" fill="#f4a261" fill-rule="nonzero" opacity="1" stroke="none" vectornator:layerName="path"/>
<path d="M194.152 203.081C194.152 203.081 194.156 203.081 194.16 203.081L194.758 203.093C194.863 203.101 194.961 203.105 195.047 203.105C205.776 203.218 211.902 205.078 215.152 206.617C215.27 206.672 215.387 206.722 215.508 206.769C215.953 206.941 216.278 207.109 216.508 207.277L233.507 219.776C234.445 220.467 235.582 220.838 236.746 220.838L252.058 220.838C254.484 220.838 256.457 222.811 256.457 225.234C256.457 227.656 254.484 229.629 252.058 229.629L234.297 229.629C233.851 229.629 233.375 229.531 232.832 229.336C232.582 229.246 232.328 229.172 232.07 229.121C231.425 228.988 230.859 228.742 230.382 228.391L217.805 219.147C216.848 218.443 215.711 218.084 214.566 218.084C213.722 218.084 212.879 218.279 212.097 218.674C210.257 219.604 209.097 221.491 209.097 223.554L209.097 244.972C209.097 246.441 209.179 250.367 209.233 252.942L209.272 254.939L210.394 318.087C210.413 319.232 209.983 320.31 209.186 321.127C208.389 321.94 207.319 322.389 206.17 322.389C203.732 322.389 201.638 320.33 201.595 317.845L200.267 268.664C200.267 265.644 197.798 263.1 194.777 263.1C193.273 263.1 191.828 263.721 190.796 264.819C189.878 265.792 189.343 267.132 189.296 268.476L189.296 268.476L187.616 317.868C187.557 320.322 185.436 322.397 182.982 322.397C181.845 322.397 180.783 321.951 179.997 321.146C179.208 320.342 178.79 319.267 178.817 318.13L179.997 268.652C180.036 267.039 179.306 265.499 178.099 264.429C177.094 263.542 175.77 263.065 174.438 263.065C174.164 263.065 173.891 263.085 173.621 263.124C173.449 263.151 173.277 263.186 173.117 263.19C170.691 263.19 168.718 261.217 168.718 258.795L168.718 223.495C168.741 223.311 168.765 223.132 168.776 222.944C168.78 222.878 168.784 222.811 168.788 222.745C168.948 218.834 173.934 203.081 194.152 203.081M194.824 197.607C194.77 197.607 194.719 197.623 194.664 197.623C194.461 197.623 194.289 197.607 194.082 197.607C171.281 197.607 163.615 215.154 163.322 222.514C163.303 222.765 163.248 223.007 163.248 223.261L163.248 258.783C163.248 264.21 167.686 268.652 173.117 268.652C173.602 268.652 174.067 268.578 174.531 268.508L173.352 317.986C173.223 323.412 177.555 327.855 182.982 327.855C188.409 327.855 192.957 323.416 193.086 317.986L194.762 268.648C194.758 268.59 194.77 268.558 194.777 268.558C194.789 268.558 194.797 268.586 194.797 268.652L196.125 317.982C196.223 323.409 200.743 327.851 206.17 327.851C211.597 327.851 215.957 323.412 215.86 317.982L214.73 254.833C214.703 253.302 214.555 246.925 214.555 244.964L214.555 223.546L227.131 232.79C228.303 233.649 229.608 234.189 230.948 234.47C231.995 234.853 233.113 235.095 234.289 235.095L252.05 235.095C257.477 235.095 261.919 230.657 261.919 225.226C261.919 219.795 257.481 215.357 252.05 215.357L236.739 215.357L219.739 202.858C219.032 202.339 218.27 201.968 217.485 201.663C213.664 199.854 206.721 197.748 195.098 197.623C195.008 197.635 194.918 197.607 194.824 197.607L194.824 197.607Z" fill="#472b29" fill-rule="nonzero" opacity="1" stroke="none" vectornator:layerName="path"/>
</g>
<path d="M202.24 220.413L190.519 220.413C189.441 220.413 188.565 219.537 188.565 218.459C188.565 217.381 189.441 216.506 190.519 216.506L202.24 216.506C203.318 216.506 204.193 217.381 204.193 218.459C204.193 219.537 203.318 220.413 202.24 220.413Z" fill="#472b29" fill-rule="nonzero" opacity="1" stroke="none" vectornator:layerName="path"/>
<path d="M178.798 267.296C177.72 267.296 176.844 266.421 176.844 265.343L176.844 222.366C176.844 221.288 177.72 220.413 178.798 220.413C179.876 220.413 180.751 221.288 180.751 222.366L180.751 265.343C180.751 266.421 179.876 267.296 178.798 267.296Z" fill="#472b29" fill-rule="nonzero" opacity="1" stroke="none" vectornator:layerName="path"/>
<path d="M327.263 220.413C326.185 220.413 325.31 219.537 325.31 218.459L325.31 181.343L310.901 181.343C309.823 181.343 308.948 180.467 308.948 179.389C308.948 178.311 309.823 177.436 310.901 177.436L327.263 177.436C328.342 177.436 329.217 178.311 329.217 179.389L329.217 218.459C329.217 219.537 328.342 220.413 327.263 220.413Z" fill="#472b29" fill-rule="nonzero" opacity="1" stroke="none" vectornator:layerName="path"/>
<path d="M327.263 247.761C326.185 247.761 325.31 246.886 325.31 245.808L325.31 228.226C325.31 227.148 326.185 226.273 327.263 226.273C328.342 226.273 329.217 227.148 329.217 228.226L329.217 245.808C329.217 246.886 328.342 247.761 327.263 247.761Z" fill="#472b29" fill-rule="nonzero" opacity="1" stroke="none" vectornator:layerName="path"/>
<path d="M327.263 259.482L222.021 259.482C220.943 259.482 220.067 258.607 220.067 257.529C220.067 256.451 220.943 255.575 222.021 255.575L327.263 255.575C328.342 255.575 329.217 256.451 329.217 257.529C329.217 258.607 328.342 259.482 327.263 259.482Z" fill="#472b29" fill-rule="nonzero" opacity="1" stroke="none" vectornator:layerName="path"/>
<path d="M297.961 181.343L219.821 181.343C218.743 181.343 217.868 180.467 217.868 179.389C217.868 178.311 218.743 177.436 219.821 177.436L297.961 177.436C299.039 177.436 299.915 178.311 299.915 179.389C299.915 180.467 299.039 181.343 297.961 181.343Z" fill="#472b29" fill-rule="nonzero" opacity="1" stroke="none" vectornator:layerName="path"/>
</g>
</g>
</svg>
