<?xml version="1.0" encoding="UTF-8" standalone="no"?>
<!DOCTYPE svg PUBLIC "-//W3C//DTD SVG 1.1//EN" "http://www.w3.org/Graphics/SVG/1.1/DTD/svg11.dtd">
<!-- Created with Vectornator (http://vectornator.io/) -->
<svg height="100%" stroke-miterlimit="10" style="fill-rule:nonzero;clip-rule:evenodd;stroke-linecap:round;stroke-linejoin:round;" version="1.1" viewBox="0 0 512 512" width="100%" xml:space="preserve" xmlns="http://www.w3.org/2000/svg" xmlns:vectornator="http://vectornator.io" xmlns:xlink="http://www.w3.org/1999/xlink">
<defs/>
<g id="Katman-1" vectornator:layerName="Katman 1">
<g opacity="1" vectornator:layerName="Laptop">
<path d="M483.853 395.652L28.1466 395.652L72.2473 307.451L439.753 307.451L483.853 395.652Z" fill="#ced8ed" fill-rule="nonzero" opacity="1" stroke="none" vectornator:layerName="path"/>
<path d="M28.1466 395.652L483.853 395.652L483.853 439.753L28.1466 439.753L28.1466 395.652Z" fill="#b5c4e0" fill-rule="nonzero" opacity="1" stroke="none" vectornator:layerName="path"/>
<path d="M72.2473 72.2473L439.753 72.2473L439.753 307.451L72.2473 307.451L72.2473 72.2473ZM64.8972 366.252L447.103 366.252C463.34 366.252 476.503 379.415 476.503 395.652L476.503 395.652L476.503 395.652L35.4967 395.652L35.4967 395.652L35.4967 395.652C35.4967 379.415 48.6598 366.252 64.8972 366.252Z" fill="#c2cde7" fill-rule="nonzero" opacity="1" stroke="none" vectornator:layerName="path"/>
<path d="M440.194 101.648L439.753 72.2473L72.2473 72.2473L71.8063 101.648L440.194 101.648Z" fill="#dae2ef" fill-rule="nonzero" opacity="1" stroke="none" vectornator:layerName="path"/>
<path d="M101.648 101.648L410.352 101.648L410.352 278.05L101.648 278.05L101.648 101.648Z" fill="#c5e4fa" fill-rule="nonzero" opacity="1" stroke="none" vectornator:layerName="path"/>
<path d="M307.451 280.035L403.002 184.483L403.002 101.648L390.286 101.648L211.899 280.035L307.451 280.035ZM145.748 280.623L184.116 280.623L363.091 101.648L324.724 101.648L145.748 280.623ZM101.648 278.05L115.319 278.05L291.722 101.648L267.834 101.648L101.648 267.834L101.648 278.05Z" fill="#e3f2ff" fill-rule="nonzero" opacity="1" stroke="none" vectornator:layerName="path"/>
<path d="M487.308 386.17L447.911 307.451C447.387 306.427 447.11 305.294 447.103 304.143L447.103 86.9475C447.103 74.7694 437.231 64.8972 425.052 64.8972L86.5065 64.8972C74.3284 64.8972 64.4562 74.7694 64.4562 86.9475L64.8972 303.996C64.8903 305.147 64.6133 306.28 64.0887 307.304L24.6921 386.17C22.1419 391.259 20.8083 396.87 20.7965 402.561L20.7965 425.052C20.7965 437.231 30.6688 447.103 42.8468 447.103L469.153 447.103C481.331 447.103 491.203 437.231 491.203 425.052L491.203 402.561C491.192 396.87 489.858 391.259 487.308 386.17ZM76.8044 314.801L351.551 314.801C355.611 314.801 358.902 311.51 358.902 307.451C358.902 303.391 355.611 300.101 351.551 300.101L79.5974 300.101L79.1564 86.9475C79.1564 82.8881 82.4471 79.5974 86.5065 79.5974L425.052 79.5974C429.112 79.5974 432.403 82.8881 432.403 86.9475L432.403 303.996C432.412 307.417 433.217 310.789 434.755 313.845L471.946 388.302L40.0538 388.302L76.8044 314.801ZM476.503 425.052C476.503 429.112 473.213 432.403 469.153 432.403L42.8468 432.403C38.7875 432.403 35.4967 429.112 35.4967 425.052L35.4967 403.002L476.503 403.002L476.503 425.052Z" fill="#264653" fill-rule="nonzero" opacity="1" stroke="none" vectornator:layerName="path"/>
<path d="M417.702 307.451C417.702 303.391 414.412 300.101 410.352 300.101L380.952 300.101C376.892 300.101 373.602 303.391 373.602 307.451C373.602 311.51 376.892 314.801 380.952 314.801L410.352 314.801C414.412 314.801 417.702 311.51 417.702 307.451ZM153.098 366.252C153.098 370.311 156.389 373.602 160.449 373.602L175.149 373.602C179.208 373.602 182.499 370.311 182.499 366.252C182.499 362.192 179.208 358.902 175.149 358.902L160.449 358.902C156.389 358.902 153.098 362.192 153.098 366.252ZM138.398 344.201L153.098 344.201C157.158 344.201 160.449 340.911 160.449 336.851C160.449 332.792 157.158 329.501 153.098 329.501L138.398 329.501C134.339 329.501 131.048 332.792 131.048 336.851C131.048 340.911 134.339 344.201 138.398 344.201ZM197.199 366.252C197.199 370.311 200.49 373.602 204.549 373.602L307.451 373.602C311.51 373.602 314.801 370.311 314.801 366.252C314.801 362.192 311.51 358.902 307.451 358.902L204.549 358.902C200.49 358.902 197.199 362.192 197.199 366.252ZM182.499 344.201L197.199 344.201C201.258 344.201 204.549 340.911 204.549 336.851C204.549 332.792 201.258 329.501 197.199 329.501L182.499 329.501C178.44 329.501 175.149 332.792 175.149 336.851C175.149 340.911 178.44 344.201 182.499 344.201ZM270.7 344.201L285.4 344.201C289.46 344.201 292.751 340.911 292.751 336.851C292.751 332.792 289.46 329.501 285.4 329.501L270.7 329.501C266.641 329.501 263.35 332.792 263.35 336.851C263.35 340.911 266.641 344.201 270.7 344.201ZM329.501 366.252C329.501 370.311 332.792 373.602 336.851 373.602L351.551 373.602C355.611 373.602 358.902 370.311 358.902 366.252C358.902 362.192 355.611 358.902 351.551 358.902L336.851 358.902C332.792 358.902 329.501 362.192 329.501 366.252ZM226.6 344.201L241.3 344.201C245.359 344.201 248.65 340.911 248.65 336.851C248.65 332.792 245.359 329.501 241.3 329.501L226.6 329.501C222.54 329.501 219.249 332.792 219.249 336.851C219.249 340.911 222.54 344.201 226.6 344.201ZM314.801 344.201L329.501 344.201C333.56 344.201 336.851 340.911 336.851 336.851C336.851 332.792 333.56 329.501 329.501 329.501L314.801 329.501C310.742 329.501 307.451 332.792 307.451 336.851C307.451 340.911 310.742 344.201 314.801 344.201ZM403.002 329.501C398.943 329.501 395.652 332.792 395.652 336.851C395.652 340.911 398.943 344.201 403.002 344.201L417.702 344.201C421.762 344.201 425.052 340.911 425.052 336.851C425.052 332.792 421.762 329.501 417.702 329.501L403.002 329.501ZM358.902 344.201L373.602 344.201C377.661 344.201 380.952 340.911 380.952 336.851C380.952 332.792 377.661 329.501 373.602 329.501L358.902 329.501C354.842 329.501 351.551 332.792 351.551 336.851C351.551 340.911 354.842 344.201 358.902 344.201ZM108.998 366.252C108.998 370.311 112.289 373.602 116.348 373.602L131.048 373.602C135.108 373.602 138.398 370.311 138.398 366.252C138.398 362.192 135.108 358.902 131.048 358.902L116.348 358.902C112.289 358.902 108.998 362.192 108.998 366.252ZM94.2976 344.201L108.998 344.201C113.057 344.201 116.348 340.911 116.348 336.851C116.348 332.792 113.057 329.501 108.998 329.501L94.2976 329.501C90.2383 329.501 86.9475 332.792 86.9475 336.851C86.9475 340.911 90.2383 344.201 94.2976 344.201ZM395.652 358.902L380.952 358.902C376.892 358.902 373.602 362.192 373.602 366.252C373.602 370.311 376.892 373.602 380.952 373.602L395.652 373.602C399.711 373.602 403.002 370.311 403.002 366.252C403.002 362.192 399.711 358.902 395.652 358.902Z" fill="#264653" fill-rule="nonzero" opacity="1" stroke="none" vectornator:layerName="path"/>
<path d="M417.702 270.7L417.702 108.998C417.702 100.879 411.121 94.2976 403.002 94.2976L108.998 94.2976C100.879 94.2976 94.2976 100.879 94.2976 108.998L94.2976 270.7C94.2976 278.819 100.879 285.4 108.998 285.4L403.002 285.4C411.121 285.4 417.702 278.819 417.702 270.7ZM108.998 108.998L403.002 108.998L403.002 270.7L108.998 270.7L108.998 108.998Z" fill="#264653" fill-rule="nonzero" opacity="1" stroke="none" vectornator:layerName="path"/>
</g>
<g opacity="1" vectornator:layerName="Xbox Cross">
<path d="M237.973 254.197C234.991 254.197 232.565 251.771 232.565 248.789L232.565 210.932L194.707 210.932C191.726 210.932 189.299 208.505 189.299 205.524L189.299 169.469C189.299 166.487 191.726 164.061 194.707 164.061L232.565 164.061L232.565 126.204C232.565 123.222 234.991 120.795 237.973 120.795L274.027 120.795C277.009 120.795 279.435 123.222 279.435 126.204L279.435 164.061L317.293 164.061C320.274 164.061 322.701 166.487 322.701 169.469L322.701 205.524C322.701 208.505 320.274 210.932 317.293 210.932L279.435 210.932L279.435 248.789C279.435 251.771 277.009 254.197 274.027 254.197L237.973 254.197Z" fill="#e76f51" fill-rule="nonzero" opacity="1" stroke="none" vectornator:layerName="path"/>
<path d="M274.027 122.598C276.014 122.598 277.633 124.217 277.633 126.204L277.633 162.258L277.633 165.864L281.238 165.864L317.293 165.864C319.279 165.864 320.898 167.482 320.898 169.469L320.898 205.524C320.898 207.51 319.279 209.129 317.293 209.129L281.238 209.129L277.633 209.129L277.633 212.735L277.633 248.789C277.633 250.776 276.014 252.395 274.027 252.395L237.973 252.395C235.986 252.395 234.367 250.776 234.367 248.789L234.367 212.735L234.367 209.129L230.762 209.129L194.707 209.129C192.721 209.129 191.102 207.51 191.102 205.524L191.102 169.469C191.102 167.482 192.721 165.864 194.707 165.864L230.762 165.864L234.367 165.864L234.367 162.258L234.367 126.204C234.367 124.217 235.986 122.598 237.973 122.598L274.027 122.598M274.027 118.993L237.973 118.993C233.989 118.993 230.762 122.219 230.762 126.204L230.762 162.258L194.707 162.258C190.723 162.258 187.496 165.485 187.496 169.469L187.496 205.524C187.496 209.508 190.723 212.735 194.707 212.735L230.762 212.735L230.762 248.789C230.762 252.773 233.989 256 237.973 256L274.027 256C278.011 256 281.238 252.773 281.238 248.789L281.238 212.735L317.293 212.735C321.277 212.735 324.504 209.508 324.504 205.524L324.504 169.469C324.504 165.485 321.277 162.258 317.293 162.258L281.238 162.258L281.238 126.204C281.238 122.219 278.011 118.993 274.027 118.993L274.027 118.993Z" fill="#e76f51" fill-rule="nonzero" opacity="1" stroke="none" vectornator:layerName="path"/>
</g>
</g>
</svg>
