<?xml version="1.0" encoding="UTF-8" standalone="no"?>
<!DOCTYPE svg PUBLIC "-//W3C//DTD SVG 1.1//EN" "http://www.w3.org/Graphics/SVG/1.1/DTD/svg11.dtd">
<!-- Created with Vectornator (http://vectornator.io/) -->
<svg height="100%" stroke-miterlimit="10" style="fill-rule:nonzero;clip-rule:evenodd;stroke-linecap:round;stroke-linejoin:round;" version="1.1" viewBox="0 0 512 512" width="100%" xml:space="preserve" xmlns="http://www.w3.org/2000/svg" xmlns:vectornator="http://vectornator.io" xmlns:xlink="http://www.w3.org/1999/xlink">
<defs/>
<g id="Katman-1" vectornator:layerName="Katman 1">
<g opacity="1" vectornator:layerName="Grupla 1">
<g opacity="1" vectornator:layerName="Push Notifications">
<path d="M117.573 21.4497L284.028 21.4497C309.1 21.4497 329.425 41.7746 329.425 66.8466L329.425 445.153C329.425 470.225 309.1 490.55 284.028 490.55L117.573 490.55C92.5013 490.55 72.1765 470.225 72.1765 445.153L72.1765 66.8466C72.1765 41.7746 92.5013 21.4497 117.573 21.4497Z" fill="#2a9d8f" fill-rule="nonzero" opacity="1" stroke="none" vectornator:layerName="rect"/>
<path d="M72.1765 414.889L329.425 414.889L329.425 414.889L329.425 445.153C329.425 470.225 309.1 490.55 284.028 490.55L117.573 490.55C92.5013 490.55 72.1765 470.225 72.1765 445.153L72.1765 414.889L72.1765 414.889Z" fill="#2a9d8f" fill-rule="nonzero" opacity="1" stroke="none" vectornator:layerName="path"/>
<path d="M72.1765 81.9788L329.425 81.9788L329.425 414.889L72.1765 414.889L72.1765 81.9788Z" fill="#c5e4fa" fill-rule="nonzero" opacity="1" stroke="none" vectornator:layerName="path"/>
<path d="M193.235 414.889L332.3 275.899L329.425 165.206L79.7426 414.889L193.235 414.889ZM72.1765 392.19L329.425 134.942L329.425 89.545L72.1765 346.794L72.1765 392.19ZM72.1765 316.529L306.727 81.9788L268.896 81.9788L72.1765 278.698L72.1765 316.529Z" fill="#e3f2ff" fill-rule="nonzero" opacity="1" stroke="none" vectornator:layerName="path"/>
<path d="M128.923 112.243L138.305 129.343L155.404 138.725L138.305 148.107L128.923 165.206L119.541 148.107L102.441 138.725L119.541 129.343L128.923 112.243ZM188.846 211.814L195.278 223.693L207.156 230.124L195.278 236.631L188.846 248.434L182.339 236.631L170.536 230.124L182.339 223.693L188.846 211.814ZM122.491 291.561L126.88 299.657L134.975 304.045L126.88 308.509L122.491 316.529L118.103 308.509L110.007 304.045L118.103 299.657L122.491 291.561Z" fill="#fff8f8" fill-rule="nonzero" opacity="1" stroke="none" vectornator:layerName="path"/>
<path d="M465.616 324.095L354.469 324.095C354.469 324.095 321.859 377.058 299.161 377.058C306.727 354.36 296.815 324.095 296.815 324.095L238.632 324.095L238.632 127.376L465.616 127.376L465.616 324.095Z" fill="#ffffff" fill-rule="nonzero" opacity="1" stroke="none" vectornator:layerName="path"/>
<path d="M110.007 346.794C105.829 346.794 102.441 350.181 102.441 354.36L102.441 369.492C102.441 373.671 105.829 377.058 110.007 377.058C114.186 377.058 117.573 373.671 117.573 369.492L117.573 354.36C117.573 350.181 114.186 346.794 110.007 346.794ZM147.838 346.794C143.659 346.794 140.272 350.181 140.272 354.36L140.272 369.492C140.272 373.671 143.659 377.058 147.838 377.058C152.017 377.058 155.404 373.671 155.404 369.492L155.404 354.36C155.404 350.181 152.017 346.794 147.838 346.794ZM185.669 346.794C181.49 346.794 178.102 350.181 178.102 354.36L178.102 369.492C178.102 373.671 181.49 377.058 185.669 377.058C189.847 377.058 193.235 373.671 193.235 369.492L193.235 354.36C193.235 350.181 189.847 346.794 185.669 346.794ZM223.499 346.794C219.321 346.794 215.933 350.181 215.933 354.36L215.933 369.492C215.933 373.671 219.321 377.058 223.499 377.058C227.678 377.058 231.065 373.671 231.065 369.492L231.065 354.36C231.065 350.181 227.678 346.794 223.499 346.794ZM261.33 346.794C257.151 346.794 253.764 350.181 253.764 354.36L253.764 369.492C253.764 373.671 257.151 377.058 261.33 377.058C265.509 377.058 268.896 373.671 268.896 369.492L268.896 354.36C268.896 350.181 265.509 346.794 261.33 346.794ZM200.801 437.587C192.443 437.587 185.669 444.362 185.669 452.72C185.669 461.077 192.443 467.852 200.801 467.852C209.158 467.852 215.933 461.077 215.933 452.72C215.933 444.362 209.158 437.587 200.801 437.587ZM238.632 44.1482L208.367 44.1482C204.188 44.1482 200.801 47.5356 200.801 51.7143C200.801 55.8929 204.188 59.2804 208.367 59.2804L238.632 59.2804C242.81 59.2804 246.198 55.8929 246.198 51.7143C246.198 47.5356 242.81 44.1482 238.632 44.1482ZM178.102 44.1482L162.97 44.1482C158.791 44.1482 155.404 47.5356 155.404 51.7143C155.404 55.8929 158.791 59.2804 162.97 59.2804L178.102 59.2804C182.281 59.2804 185.669 55.8929 185.669 51.7143C185.669 47.5356 182.281 44.1482 178.102 44.1482Z" fill="#264653" fill-rule="nonzero" opacity="1" stroke="none" vectornator:layerName="path"/>
<path d="M450.483 119.81L336.991 119.81L336.991 66.8466C336.991 37.5959 313.279 13.8836 284.028 13.8836L117.573 13.8836C88.3227 13.8836 64.6103 37.5959 64.6103 66.8466L64.6103 445.153C64.6103 474.404 88.3227 498.116 117.573 498.116L284.028 498.116C313.279 498.116 336.991 474.404 336.991 445.153L336.991 364.423C346.596 355.432 353.778 344.164 357.874 331.661L450.483 331.661C463.019 331.661 473.182 321.499 473.182 308.963L473.182 142.508C473.182 129.972 463.019 119.81 450.483 119.81ZM79.7426 66.8466C79.7426 45.9533 96.68 29.0159 117.573 29.0159L284.028 29.0159C304.922 29.0159 321.859 45.9533 321.859 66.8466L321.859 74.4127L79.7426 74.4127L79.7426 66.8466ZM321.859 445.153C321.859 466.047 304.922 482.984 284.028 482.984L117.573 482.984C96.68 482.984 79.7426 466.047 79.7426 445.153L79.7426 422.455L321.859 422.455L321.859 445.153ZM321.859 407.323L79.7426 407.323L79.7426 89.545L321.859 89.545L321.859 119.81L253.764 119.81C241.228 119.81 231.065 129.972 231.065 142.508L231.065 308.963C231.065 321.499 241.228 331.661 253.764 331.661L293.183 331.661C293.799 346.349 290.839 360.967 284.558 374.259C283.629 376.591 283.917 379.231 285.327 381.308C286.737 383.384 289.085 384.627 291.594 384.624L292.654 384.624C302.869 383.258 312.759 380.081 321.859 375.242L321.859 407.323ZM458.049 308.963C458.049 313.142 454.662 316.529 450.483 316.529L352.124 316.529C348.4 316.475 345.19 319.139 344.557 322.809C339.753 343.84 323.949 360.628 303.246 366.693C312.78 336.428 306.651 322.355 305.819 320.69C304.549 318.17 301.982 316.566 299.161 316.529L253.764 316.529C249.585 316.529 246.198 313.142 246.198 308.963L246.198 142.508C246.198 138.329 249.585 134.942 253.764 134.942L450.483 134.942C454.662 134.942 458.049 138.329 458.049 142.508L458.049 308.963Z" fill="#264653" fill-rule="nonzero" opacity="1" stroke="none" vectornator:layerName="path"/>
</g>
</g>
<g opacity="1" vectornator:layerName="Contacts">
<path d="M377.409 240.323C376.495 240.024 370.716 237.419 374.327 226.442L374.275 226.442C383.688 216.747 390.882 201.147 390.882 185.788C390.882 162.172 375.178 149.792 356.927 149.792C338.664 149.792 323.047 162.166 323.047 185.788C323.047 201.21 330.2 216.874 339.67 226.546C343.362 236.229 336.761 239.823 335.381 240.323C316.267 247.241 293.841 259.839 293.841 272.277C293.841 275.635 293.841 273.599 293.841 276.94C293.841 293.886 326.698 297.739 357.105 297.739C387.558 297.739 420.001 293.886 420.001 276.94C420.001 273.605 420.001 275.635 420.001 272.277C420.001 259.465 397.465 246.965 377.409 240.323Z" fill="#e76f51" fill-rule="nonzero" opacity="1" stroke="none" vectornator:layerName="path"/>
</g>
</g>
</svg>
