<?xml version="1.0" encoding="UTF-8" standalone="no"?>
<!DOCTYPE svg PUBLIC "-//W3C//DTD SVG 1.1//EN" "http://www.w3.org/Graphics/SVG/1.1/DTD/svg11.dtd">
<!-- Created with Vectornator (http://vectornator.io/) -->
<svg height="100%" stroke-miterlimit="10" style="fill-rule:nonzero;clip-rule:evenodd;stroke-linecap:round;stroke-linejoin:round;" version="1.1" viewBox="0 0 512 512" width="100%" xml:space="preserve" xmlns="http://www.w3.org/2000/svg" xmlns:vectornator="http://vectornator.io" xmlns:xlink="http://www.w3.org/1999/xlink">
<defs/>
<g id="Katman-1" vectornator:layerName="Katman 1">
<g opacity="1" vectornator:layerName="Brain">
<path d="M256 20.7422C126.071 20.7422 20.7422 126.071 20.7422 256C20.7422 385.929 126.071 491.258 256 491.258C385.929 491.258 491.258 385.929 491.258 256C491.258 126.071 385.929 20.7422 256 20.7422Z" fill="#e4e4f9" fill-rule="nonzero" opacity="1" stroke="none" vectornator:layerName="path"/>
<path d="M443.57 141.55C438.303 141.55 434.033 145.82 434.033 151.088C434.033 156.355 438.303 160.625 443.57 160.625C448.838 160.625 453.108 156.355 453.108 151.088C453.108 145.82 448.838 141.55 443.57 141.55Z" fill="#ffffff" fill-rule="nonzero" opacity="1" stroke="none" vectornator:layerName="path"/>
<g opacity="1" vectornator:layerName="g">
<path d="M408.562 261.061C408.562 248.802 403.201 237.822 394.719 230.255C399.196 223.649 401.815 215.682 401.815 207.105C401.815 186.885 387.274 170.105 368.084 166.538C368.034 144.138 350.16 125.928 327.887 125.337C327.518 125.33 327.15 125.324 326.774 125.324C324.295 125.324 321.885 125.578 319.526 125.998C315.851 113.237 304.374 103.775 290.519 103.413C290.246 103.407 289.966 103.4 289.686 103.4C276.239 103.4 264.883 111.959 260.502 123.88C258.219 127.861 256.808 132.413 256.808 137.335L256.808 377.196C256.808 388.164 262.816 397.638 271.661 402.788C276.76 406.419 282.953 408.6 289.686 408.6C300.381 408.6 309.804 403.208 315.425 395.006C316.124 395.037 316.805 395.114 317.51 395.114C345.449 395.114 368.097 372.465 368.097 344.527C368.097 340.928 367.703 337.425 366.991 334.042C368.186 334.22 369.382 334.404 370.628 334.404C384.133 334.404 395.076 323.455 395.076 309.957C395.076 304.489 393.213 299.491 390.173 295.422C401.262 288.014 408.562 275.393 408.562 261.061Z" fill="#f7d4d5" fill-rule="nonzero" opacity="1" stroke="none" vectornator:layerName="path"/>
<path d="M289.693 413.05C282.311 413.05 275.183 410.755 269.085 406.412C258.893 400.506 252.357 389.226 252.357 377.19L252.357 137.335C252.357 132.013 253.736 126.856 256.458 121.992C261.697 108.195 275.005 98.9495 289.699 98.9495L290.627 98.9622C304.851 99.3374 317.237 108.067 322.546 121.083C323.996 120.943 325.401 120.867 326.794 120.867L327.963 120.879C351.731 121.515 370.596 139.7 372.408 162.952C392.233 168.255 406.279 186.287 406.279 207.098C406.279 215.027 404.257 222.714 400.397 229.543C408.46 238.025 413.019 249.311 413.019 261.055C413.019 274.91 406.788 287.874 396.15 296.534C398.375 300.686 399.533 305.258 399.533 309.95C399.533 325.344 387.439 337.959 372.249 338.804C372.446 340.712 372.554 342.626 372.554 344.514C372.554 374.837 347.903 399.507 317.593 399.552C310.841 408.053 300.591 413.05 289.693 413.05ZM289.693 107.851C278.597 107.851 268.545 114.909 264.679 125.413L264.361 126.087C262.301 129.679 261.258 133.469 261.258 137.335L261.258 377.196C261.258 386.206 265.983 394.332 273.899 398.948C286.685 407.97 303.611 404.365 311.75 392.494L313.136 390.478L317.51 390.663C342.95 390.663 363.646 369.967 363.646 344.527C363.646 341.373 363.303 338.149 362.635 334.964L361.313 328.726L367.627 329.648C368.765 329.807 369.674 329.96 370.628 329.96C381.653 329.96 390.631 320.995 390.631 309.963C390.631 305.728 389.239 301.615 386.613 298.086L383.821 294.328L387.706 291.727C397.981 284.854 404.117 273.39 404.117 261.068C404.117 250.602 399.615 240.581 391.769 233.581L388.857 230.986L391.051 227.763C395.19 221.659 397.377 214.518 397.377 207.111C397.377 189.384 384.724 174.156 367.29 170.926L363.665 170.252L363.653 166.564C363.608 146.478 347.859 130.328 327.792 129.8L326.8 129.787C324.765 129.787 322.648 129.984 320.314 130.398L316.379 131.091L315.266 127.244C312.017 115.971 302.034 108.182 290.418 107.883L289.693 107.851Z" fill="#472b29" fill-rule="nonzero" opacity="1" stroke="none" vectornator:layerName="path"/>
<path d="M368.104 353.187C367.976 353.187 367.856 353.181 367.722 353.174C365.274 352.971 363.456 350.815 363.659 348.367C363.78 346.879 366.298 311.584 335.53 294.004C333.4 292.789 332.656 290.068 333.877 287.931C335.085 285.801 337.787 285.051 339.949 286.278C375.727 306.72 372.669 347.394 372.523 349.118C372.332 351.445 370.386 353.187 368.104 353.187ZM407.487 254.76C405.586 254.76 403.831 253.539 403.233 251.632C402.909 250.602 395.063 226.383 369.877 222.943C367.442 222.612 365.738 220.368 366.069 217.933C366.399 215.504 368.606 213.743 371.079 214.124C401.987 218.34 411.353 247.753 411.741 249.006C412.459 251.346 411.143 253.832 408.803 254.557C408.364 254.697 407.926 254.76 407.487 254.76ZM394.942 313.619C392.507 313.619 390.523 311.661 390.491 309.232L390.491 309.232C390.485 308.761 390.161 297.698 380.229 293.196C377.984 292.179 376.999 289.546 378.01 287.302C379.021 285.064 381.666 284.072 383.904 285.083C399.088 291.969 399.393 308.437 399.399 309.13C399.418 311.591 397.434 313.6 394.986 313.619C394.961 313.619 394.955 313.619 394.942 313.619ZM300.616 139.573C299.268 139.573 297.939 138.962 297.062 137.818C295.581 135.86 295.956 133.068 297.914 131.58C322.75 112.69 350.179 126.875 351.33 127.492C353.498 128.643 354.325 131.326 353.174 133.494C352.036 135.669 349.346 136.521 347.172 135.357C346.218 134.855 323.538 123.283 303.306 138.67C302.498 139.28 301.551 139.573 300.616 139.573Z" fill="#472b29" fill-rule="nonzero" opacity="1" stroke="none" vectornator:layerName="path"/>
<path d="M320.798 314.764C319.799 314.764 318.814 314.293 318.197 313.416C317.192 311.979 317.536 310.001 318.96 308.99C319.933 308.297 342.67 291.677 327.989 259.77C327.258 258.175 327.951 256.286 329.547 255.555C331.13 254.824 333.031 255.51 333.762 257.113C350.714 293.946 322.896 313.988 322.616 314.191C322.063 314.579 321.427 314.764 320.798 314.764ZM317.618 370.946C305.671 370.946 295.752 365.656 290.004 356.074C284.212 346.415 284.104 334.22 289.737 325.738C290.716 324.269 292.7 323.894 294.144 324.842C295.606 325.814 296.007 327.785 295.04 329.248C290.729 335.74 290.901 345.207 295.453 352.805C300.527 361.262 309.893 365.535 321.046 364.416C322.807 364.289 324.346 365.522 324.517 367.277C324.683 369.025 323.398 370.583 321.656 370.749C320.289 370.882 318.941 370.946 317.618 370.946Z" fill="#472b29" fill-rule="nonzero" opacity="1" stroke="none" vectornator:layerName="path"/>
<path d="M293.787 218.613C297.145 222.396 300.966 225.582 304.953 228.068" fill="#84a7d7" fill-rule="nonzero" opacity="1" stroke="none" vectornator:layerName="path"/>
<path d="M304.946 231.247C304.368 231.247 303.783 231.094 303.255 230.764C298.874 228.017 294.887 224.641 291.403 220.724C290.233 219.414 290.36 217.405 291.67 216.235C292.967 215.072 294.989 215.18 296.159 216.502C299.237 219.967 302.759 222.956 306.631 225.378C308.113 226.307 308.571 228.271 307.636 229.759C307.038 230.719 306.002 231.247 304.946 231.247ZM285.267 207.543C283.97 207.543 282.749 206.742 282.279 205.451C278.356 194.674 275.577 181.112 284.721 162.291C285.49 160.714 287.391 160.047 288.974 160.822C290.551 161.592 291.212 163.493 290.443 165.076C282.336 181.76 284.784 193.752 288.249 203.283C288.853 204.936 288.001 206.761 286.348 207.359C285.992 207.48 285.623 207.543 285.267 207.543ZM257.939 322.832C257.78 322.832 257.615 322.82 257.456 322.794C255.72 322.533 254.525 320.912 254.792 319.176C257.602 300.667 266.04 285.471 278.534 276.397C279.945 275.374 281.942 275.673 282.972 277.097C284.002 278.521 283.69 280.505 282.273 281.535C271.158 289.604 263.63 303.306 261.074 320.124C260.839 321.701 259.478 322.832 257.939 322.832Z" fill="#472b29" fill-rule="nonzero" opacity="1" stroke="none" vectornator:layerName="path"/>
<path d="M306.46 269.747C301.99 270.09 297.755 270.999 293.8 272.424" fill="#84a7d7" fill-rule="nonzero" opacity="1" stroke="none" vectornator:layerName="path"/>
<path d="M293.794 275.603C292.49 275.603 291.27 274.795 290.799 273.498C290.208 271.845 291.066 270.026 292.719 269.429C297.005 267.896 301.545 266.93 306.212 266.574C307.789 266.459 309.486 267.744 309.626 269.505C309.76 271.254 308.443 272.786 306.695 272.919C302.587 273.231 298.613 274.07 294.868 275.418C294.519 275.539 294.15 275.603 293.794 275.603ZM332.497 207.155C332.026 207.155 331.556 207.047 331.098 206.831C329.521 206.062 328.866 204.161 329.642 202.577C336.903 187.705 331.804 171.663 315.66 158.571C314.293 157.465 314.083 155.462 315.19 154.102C316.296 152.728 318.312 152.531 319.659 153.631C338.035 168.529 343.904 187.871 335.358 205.375C334.805 206.5 333.673 207.155 332.497 207.155Z" fill="#472b29" fill-rule="nonzero" opacity="1" stroke="none" vectornator:layerName="path"/>
<path d="M371.919 259.287C375.441 260.457 379.301 261.246 383.433 261.627" fill="#84a7d7" fill-rule="nonzero" opacity="1" stroke="none" vectornator:layerName="path"/>
<path d="M383.433 264.813C383.332 264.813 383.236 264.806 383.128 264.8C378.785 264.393 374.678 263.56 370.914 262.307C369.248 261.754 368.345 259.961 368.898 258.289C369.445 256.623 371.219 255.714 372.917 256.273C376.229 257.367 379.86 258.105 383.726 258.467C385.468 258.632 386.759 260.184 386.594 261.932C386.441 263.573 385.055 264.813 383.433 264.813Z" fill="#472b29" fill-rule="nonzero" opacity="1" stroke="none" vectornator:layerName="path"/>
<path d="M348.38 233.294C349.556 241.993 354.013 248.796 360.817 253.444" fill="#84a7d7" fill-rule="nonzero" opacity="1" stroke="none" vectornator:layerName="path"/>
<path d="M360.811 256.623C360.187 256.623 359.564 256.445 359.017 256.07C351.248 250.761 346.479 243.029 345.226 233.714C344.991 231.978 346.205 230.376 347.954 230.141C349.639 229.836 351.292 231.12 351.527 232.868C352.551 240.448 356.283 246.494 362.61 250.812C364.06 251.804 364.428 253.781 363.443 255.231C362.826 256.134 361.828 256.623 360.811 256.623Z" fill="#472b29" fill-rule="nonzero" opacity="1" stroke="none" vectornator:layerName="path"/>
<path d="M105.054 261.061C105.054 248.802 110.414 237.822 118.896 230.255C114.419 223.649 111.8 215.682 111.8 207.105C111.8 186.885 126.341 170.105 145.531 166.538C145.581 144.138 163.455 125.928 185.728 125.337C186.097 125.33 186.465 125.324 186.841 125.324C189.32 125.324 191.73 125.578 194.089 125.998C197.764 113.237 209.241 103.775 223.096 103.413C223.369 103.407 223.649 103.4 223.929 103.4C237.376 103.4 248.732 111.959 253.113 123.88C255.396 127.861 256.808 132.413 256.808 137.335L256.808 377.196C256.808 388.164 250.799 397.638 241.954 402.788C236.855 406.419 230.662 408.6 223.929 408.6C213.234 408.6 203.811 403.208 198.19 395.006C197.491 395.037 196.81 395.114 196.105 395.114C168.166 395.114 145.518 372.465 145.518 344.527C145.518 340.928 145.912 337.425 146.624 334.042C145.429 334.22 144.233 334.404 142.987 334.404C129.482 334.404 118.54 323.455 118.54 309.957C118.54 304.489 120.402 299.491 123.442 295.422C112.359 288.014 105.054 275.393 105.054 261.061Z" fill="#f7d4d5" fill-rule="nonzero" opacity="1" stroke="none" vectornator:layerName="path"/>
<path d="M223.929 413.05C213.024 413.05 202.775 408.053 196.022 399.564C165.712 399.52 141.061 374.843 141.061 344.527C141.061 342.632 141.169 340.718 141.366 338.817C126.176 337.971 114.082 325.357 114.082 309.963C114.082 305.264 115.246 300.699 117.465 296.547C106.827 287.887 100.596 274.922 100.596 261.068C100.596 249.324 105.162 238.038 113.218 229.556C109.364 222.721 107.336 215.033 107.336 207.111C107.336 186.3 121.382 168.268 141.207 162.965C143.025 139.713 161.891 121.522 185.594 120.892L186.815 120.879C188.208 120.879 189.613 120.956 191.069 121.096C196.378 108.08 208.758 99.3437 222.962 98.975L223.916 98.9622C238.604 98.9622 251.905 108.207 257.151 122.005C259.872 126.869 261.252 132.025 261.252 137.347L261.252 377.209C261.252 389.245 254.716 400.525 244.186 406.648C238.432 410.755 231.304 413.05 223.929 413.05ZM200.479 390.472L201.865 392.488C206.869 399.781 215.122 404.142 223.935 404.142C229.454 404.142 234.795 402.419 239.386 399.158C247.639 394.325 252.363 386.199 252.363 377.19L252.363 137.335C252.363 133.475 251.32 129.686 249.26 126.087L248.942 125.413C245.083 114.915 235.03 107.851 223.935 107.851L223.197 107.864C211.606 108.163 201.617 115.945 198.368 127.231L197.255 131.072L193.32 130.379C190.993 129.972 188.875 129.768 186.834 129.768L185.804 129.781C165.788 130.309 150.032 146.459 149.981 166.545L149.969 170.233L146.344 170.907C128.91 174.143 116.257 189.365 116.257 207.092C116.257 214.487 118.444 221.633 122.583 227.744L124.771 230.967L121.865 233.561C114.019 240.568 109.517 250.589 109.517 261.049C109.517 273.371 115.653 284.835 125.928 291.708L129.826 294.309L127.028 298.067C124.396 301.602 123.003 305.703 123.003 309.944C123.003 320.969 131.975 329.941 143.006 329.941C143.954 329.941 144.863 329.795 145.772 329.661L152.092 328.739L150.999 334.951C150.331 338.137 149.988 341.36 149.988 344.514C149.988 369.954 170.684 390.65 196.124 390.65C196.435 390.65 196.747 390.625 197.052 390.606L200.479 390.472Z" fill="#472b29" fill-rule="nonzero" opacity="1" stroke="none" vectornator:layerName="path"/>
<path d="M145.511 353.193C143.229 353.193 141.283 351.445 141.086 349.118C140.94 347.394 137.882 306.72 173.66 286.278C175.822 285.058 178.518 285.801 179.732 287.931C180.953 290.068 180.209 292.789 178.079 294.004C147.184 311.654 149.918 347.992 149.95 348.361C150.159 350.809 148.347 352.964 145.893 353.174C145.766 353.187 145.645 353.193 145.511 353.193ZM106.128 254.766C105.702 254.766 105.257 254.703 104.825 254.569C102.472 253.851 101.156 251.358 101.874 249.012C102.262 247.76 111.622 218.346 142.542 214.13C145.028 213.749 147.216 215.51 147.553 217.939C147.89 220.374 146.179 222.619 143.744 222.949C118.406 226.408 110.464 251.378 110.382 251.625C109.797 253.533 108.036 254.766 106.128 254.766ZM118.673 313.606C118.654 313.606 118.635 313.606 118.609 313.606C116.161 313.568 114.203 311.584 114.222 309.13C114.229 308.437 114.534 291.969 129.717 285.083C131.956 284.072 134.594 285.051 135.612 287.302C136.623 289.546 135.637 292.179 133.393 293.196C123.454 297.698 123.137 308.761 123.13 309.232C123.079 311.654 121.096 313.606 118.673 313.606ZM212.999 139.573C212.064 139.573 211.117 139.274 210.309 138.664C189.969 123.2 166.685 135.23 166.456 135.351C164.269 136.502 161.579 135.675 160.441 133.507C159.284 131.332 160.11 128.637 162.285 127.492C163.442 126.869 190.859 112.703 215.701 131.58C217.659 133.068 218.034 135.866 216.553 137.818C215.676 138.969 214.347 139.573 212.999 139.573Z" fill="#472b29" fill-rule="nonzero" opacity="1" stroke="none" vectornator:layerName="path"/>
<path d="M192.817 314.764C192.182 314.764 191.552 314.579 190.993 314.185C190.713 313.988 162.895 293.94 179.846 257.106C180.578 255.504 182.485 254.817 184.062 255.549C185.658 256.28 186.351 258.168 185.62 259.764C170.862 291.829 194.401 308.812 194.642 308.978C196.079 309.982 196.429 311.966 195.418 313.403C194.808 314.293 193.822 314.764 192.817 314.764ZM195.997 370.946C194.674 370.946 193.326 370.882 191.953 370.755C190.21 370.59 188.92 369.032 189.091 367.283C189.263 365.528 190.872 364.289 192.563 364.422C203.76 365.465 213.088 361.262 218.149 352.812C222.708 345.214 222.873 335.74 218.562 329.254C217.596 327.792 217.99 325.821 219.459 324.848C220.908 323.894 222.88 324.263 223.865 325.744C229.499 334.233 229.39 346.428 223.598 356.086C217.863 365.656 207.937 370.946 195.997 370.946Z" fill="#472b29" fill-rule="nonzero" opacity="1" stroke="none" vectornator:layerName="path"/>
<path d="M219.834 218.613C216.477 222.396 212.655 225.582 208.669 228.068" fill="#84a7d7" fill-rule="nonzero" opacity="1" stroke="none" vectornator:layerName="path"/>
<path d="M208.669 231.247C207.613 231.247 206.577 230.719 205.973 229.753C205.044 228.265 205.496 226.307 206.984 225.378C210.856 222.956 214.378 219.967 217.45 216.502C218.613 215.18 220.616 215.052 221.938 216.235C223.248 217.405 223.375 219.408 222.206 220.724C218.728 224.641 214.741 228.017 210.347 230.764C209.826 231.094 209.241 231.247 208.669 231.247Z" fill="#472b29" fill-rule="nonzero" opacity="1" stroke="none" vectornator:layerName="path"/>
<path d="M228.354 207.543C227.992 207.543 227.629 207.48 227.267 207.353C225.614 206.755 224.762 204.93 225.366 203.277C228.825 193.746 231.272 181.748 223.166 165.07C222.403 163.486 223.058 161.585 224.634 160.816C226.218 160.053 228.119 160.708 228.888 162.285C238.025 181.099 235.253 194.661 231.336 205.445C230.878 206.742 229.651 207.543 228.354 207.543Z" fill="#472b29" fill-rule="nonzero" opacity="1" stroke="none" vectornator:layerName="path"/>
<path d="M255.676 322.832C254.137 322.832 252.776 321.701 252.541 320.13C249.985 303.312 242.457 289.61 231.349 281.541C229.925 280.511 229.619 278.521 230.649 277.103C231.679 275.673 233.676 275.38 235.087 276.404C247.582 285.477 256.013 300.667 258.823 319.183C259.09 320.918 257.895 322.54 256.159 322.8C256 322.82 255.841 322.832 255.676 322.832Z" fill="#472b29" fill-rule="nonzero" opacity="1" stroke="none" vectornator:layerName="path"/>
<g opacity="1" vectornator:layerName="g">
<path d="M207.155 269.747C211.625 270.09 215.86 270.999 219.815 272.424" fill="#84a7d7" fill-rule="nonzero" opacity="1" stroke="none" vectornator:layerName="path"/>
<path d="M219.821 275.603C219.459 275.603 219.103 275.539 218.747 275.418C215.008 274.07 211.028 273.231 206.92 272.919C205.172 272.786 203.862 271.254 203.989 269.505C204.122 267.75 205.827 266.453 207.403 266.574C212.083 266.936 216.623 267.896 220.896 269.429C222.549 270.026 223.407 271.845 222.816 273.498C222.345 274.795 221.125 275.603 219.821 275.603Z" fill="#472b29" fill-rule="nonzero" opacity="1" stroke="none" vectornator:layerName="path"/>
</g>
<path d="M181.118 207.155C179.942 207.155 178.816 206.494 178.263 205.375C169.718 187.864 175.586 168.529 193.968 153.631C195.31 152.525 197.325 152.728 198.438 154.102C199.544 155.462 199.335 157.465 197.968 158.571C181.817 171.663 176.718 187.699 183.979 202.577C184.749 204.161 184.1 206.062 182.523 206.831C182.059 207.054 181.589 207.155 181.118 207.155Z" fill="#472b29" fill-rule="nonzero" opacity="1" stroke="none" vectornator:layerName="path"/>
<g opacity="1" vectornator:layerName="g">
<path d="M141.697 259.287C138.174 260.457 134.314 261.246 130.182 261.627" fill="#84a7d7" fill-rule="nonzero" opacity="1" stroke="none" vectornator:layerName="path"/>
<path d="M130.182 264.813C128.56 264.813 127.174 263.579 127.022 261.932C126.863 260.184 128.147 258.626 129.889 258.467C133.749 258.105 137.392 257.367 140.698 256.273C142.364 255.714 144.164 256.629 144.717 258.289C145.27 259.961 144.361 261.754 142.701 262.307C138.931 263.554 134.823 264.393 130.487 264.8C130.379 264.806 130.283 264.813 130.182 264.813Z" fill="#472b29" fill-rule="nonzero" opacity="1" stroke="none" vectornator:layerName="path"/>
</g>
<g opacity="1" vectornator:layerName="g">
<path d="M165.241 233.294C164.065 241.993 159.608 248.796 152.804 253.444" fill="#84a7d7" fill-rule="nonzero" opacity="1" stroke="none" vectornator:layerName="path"/>
<path d="M152.804 256.623C151.794 256.623 150.795 256.14 150.178 255.237C149.193 253.781 149.562 251.81 151.011 250.818C157.338 246.494 161.07 240.454 162.094 232.875C162.323 231.133 163.932 229.855 165.667 230.147C167.41 230.376 168.63 231.978 168.395 233.72C167.142 243.035 162.374 250.767 154.604 256.076C154.051 256.439 153.421 256.623 152.804 256.623Z" fill="#472b29" fill-rule="nonzero" opacity="1" stroke="none" vectornator:layerName="path"/>
</g>
</g>
</g>
</g>
</svg>
