<?xml version="1.0" encoding="UTF-8" standalone="no"?>
<!DOCTYPE svg PUBLIC "-//W3C//DTD SVG 1.1//EN" "http://www.w3.org/Graphics/SVG/1.1/DTD/svg11.dtd">
<!-- Created with Vectornator (http://vectornator.io/) -->
<svg height="100%" stroke-miterlimit="10" style="fill-rule:nonzero;clip-rule:evenodd;stroke-linecap:round;stroke-linejoin:round;" version="1.1" viewBox="0 0 512 512" width="100%" xml:space="preserve" xmlns="http://www.w3.org/2000/svg" xmlns:vectornator="http://vectornator.io" xmlns:xlink="http://www.w3.org/1999/xlink">
<defs/>
<g id="Katman-1" vectornator:layerName="Katman 1">
<g opacity="1" vectornator:layerName="Treatment">
<path d="M420.679 470.369L91.3209 470.369C83.4091 470.369 77.001 463.961 77.001 456.049L77.001 83.7313C77.001 75.8196 83.4091 69.4114 91.3209 69.4114L420.679 69.4114C428.591 69.4114 434.999 75.8196 434.999 83.7313L434.999 456.049C434.999 463.961 428.591 470.369 420.679 470.369Z" fill="#cda1a7" fill-rule="nonzero" opacity="1" stroke="none" vectornator:layerName="path"/>
<path d="M427.839 83.7313L427.839 83.7313C427.839 87.6836 424.631 90.8913 420.679 90.8913L91.3209 90.8913C87.3686 90.8913 84.1609 87.6836 84.1609 83.7313L84.1609 83.7313C84.1609 79.779 87.3686 76.5714 91.3209 76.5714L420.679 76.5714C424.631 76.5714 427.839 79.779 427.839 83.7313Z" fill="#deb4ba" fill-rule="nonzero" opacity="1" stroke="none" vectornator:layerName="path"/>
<path d="M119.961 427.409L334.76 427.409L392.039 427.409L392.039 112.371L119.961 112.371L119.961 427.409Z" fill="#faefde" fill-rule="nonzero" opacity="1" stroke="none" vectornator:layerName="path"/>
<path d="M392.039 287.604L392.039 138.376L152.703 426.565L269.475 426.565L392.039 287.604ZM122.796 415.925L374.139 112.371L341.92 112.371L116.381 388.781L122.796 415.925ZM119.961 344.504L309.7 112.371L298.96 112.371L119.961 330.943L119.961 344.504Z" fill="#fff7f0" fill-rule="nonzero" opacity="1" stroke="none" vectornator:layerName="path"/>
<path d="M327.6 76.5714L256 40.7716L184.4 76.5714L177.24 126.691L334.76 126.691L327.6 76.5714Z" fill="#f9e3ae" fill-rule="nonzero" opacity="1" stroke="none" vectornator:layerName="path"/>
<path d="M256 62.2515C248.091 62.2515 241.68 68.6627 241.68 76.5714C241.68 84.4801 248.091 90.8913 256 90.8913C263.909 90.8913 270.32 84.4801 270.32 76.5714C270.32 68.6627 263.909 62.2515 256 62.2515Z" fill="#8d6c9f" fill-rule="nonzero" opacity="1" stroke="none" vectornator:layerName="path"/>
<path d="M420.679 62.2515L317.432 62.2515L298.101 48.2179C285.499 39.0532 270.75 34.4708 256 34.4708C241.25 34.4708 226.501 39.0532 213.899 48.2179L194.568 62.2515L91.3209 62.2515C79.507 62.2515 69.841 71.9174 69.841 83.7313L69.841 456.049C69.841 467.863 79.507 477.529 91.3209 477.529L420.679 477.529C432.493 477.529 442.159 467.863 442.159 456.049L442.159 83.7313C442.159 71.9174 432.493 62.2515 420.679 62.2515ZM222.277 59.8171C242.468 45.1392 269.532 45.1392 289.723 59.8171L293.089 62.2515L312.707 76.5714L318.721 80.939C324.306 84.9485 327.6 91.4641 327.6 98.3377L327.6 105.211L327.6 112.371C327.6 116.309 324.378 119.531 320.44 119.531L191.56 119.531C187.622 119.531 184.4 116.309 184.4 112.371L184.4 105.211L184.4 98.3377C184.4 91.4641 187.694 84.9485 193.279 80.939L199.293 76.5714L218.911 62.2515L222.277 59.8171ZM171.369 119.531C174.305 127.837 182.252 133.851 191.56 133.851L320.44 133.851C329.748 133.851 337.695 127.837 340.631 119.531L384.879 119.531L384.879 420.249L127.121 420.249L127.121 119.531L171.369 119.531ZM427.839 456.049C427.839 459.987 424.617 463.209 420.679 463.209L91.3209 463.209C87.3829 463.209 84.1609 459.987 84.1609 456.049L84.1609 83.7313C84.1609 79.7934 87.3829 76.5714 91.3209 76.5714L177.455 76.5714C172.73 82.729 170.08 90.3901 170.08 98.3377L170.08 105.211L127.121 105.211C119.245 105.211 112.801 111.655 112.801 119.531L112.801 420.249C112.801 428.125 119.245 434.569 127.121 434.569L384.879 434.569C392.755 434.569 399.199 428.125 399.199 420.249L399.199 119.531C399.199 111.512 392.898 105.211 384.879 105.211L341.92 105.211L341.92 98.3377C341.92 90.3901 339.27 82.729 334.545 76.5714L420.679 76.5714C424.617 76.5714 427.839 79.7934 427.839 83.7313L427.839 456.049Z" fill="#8d6c9f" fill-rule="nonzero" opacity="1" stroke="none" vectornator:layerName="path"/>
<path d="M148.601 176.811C152.56 176.811 155.761 173.61 155.761 169.651L155.761 155.331C155.761 151.371 152.56 148.171 148.601 148.171C144.641 148.171 141.441 151.371 141.441 155.331L141.441 169.651C141.441 173.61 144.641 176.811 148.601 176.811ZM184.4 176.811C188.36 176.811 191.56 173.61 191.56 169.651L191.56 155.331C191.56 151.371 188.36 148.171 184.4 148.171C180.441 148.171 177.24 151.371 177.24 155.331L177.24 169.651C177.24 173.61 180.441 176.811 184.4 176.811ZM220.2 176.811C224.16 176.811 227.36 173.61 227.36 169.651L227.36 155.331C227.36 151.371 224.16 148.171 220.2 148.171C216.241 148.171 213.04 151.371 213.04 155.331L213.04 169.651C213.04 173.61 216.241 176.811 220.2 176.811ZM256 176.811C259.959 176.811 263.16 173.61 263.16 169.651L263.16 155.331C263.16 151.371 259.959 148.171 256 148.171C252.041 148.171 248.84 151.371 248.84 155.331L248.84 169.651C248.84 173.61 252.041 176.811 256 176.811ZM291.8 176.811C295.759 176.811 298.96 173.61 298.96 169.651L298.96 155.331C298.96 151.371 295.759 148.171 291.8 148.171C287.84 148.171 284.64 151.371 284.64 155.331L284.64 169.651C284.64 173.61 287.84 176.811 291.8 176.811ZM327.6 176.811C331.559 176.811 334.76 173.61 334.76 169.651L334.76 155.331C334.76 151.371 331.559 148.171 327.6 148.171C323.64 148.171 320.44 151.371 320.44 155.331L320.44 169.651C320.44 173.61 323.64 176.811 327.6 176.811ZM363.399 176.811C367.359 176.811 370.559 173.61 370.559 169.651L370.559 155.331C370.559 151.371 367.359 148.171 363.399 148.171C359.44 148.171 356.239 151.371 356.239 155.331L356.239 169.651C356.239 173.61 359.44 176.811 363.399 176.811ZM256 62.2515C248.091 62.2515 241.68 68.6627 241.68 76.5714C241.68 84.4801 248.091 90.8913 256 90.8913C263.909 90.8913 270.32 84.4801 270.32 76.5714C270.32 68.6627 263.909 62.2515 256 62.2515ZM291.8 234.091L349.079 234.091C353.039 234.091 356.239 230.89 356.239 226.931C356.239 222.971 353.039 219.771 349.079 219.771L291.8 219.771C287.84 219.771 284.64 222.971 284.64 226.931C284.64 230.89 287.84 234.091 291.8 234.091ZM349.079 262.73L298.96 262.73C295 262.73 291.8 265.931 291.8 269.89C291.8 273.85 295 277.05 298.96 277.05L349.079 277.05C353.039 277.05 356.239 273.85 356.239 269.89C356.239 265.931 353.039 262.73 349.079 262.73ZM349.079 348.65L177.24 348.65C173.281 348.65 170.08 351.85 170.08 355.81C170.08 359.769 173.281 362.97 177.24 362.97L349.079 362.97C353.039 362.97 356.239 359.769 356.239 355.81C356.239 351.85 353.039 348.65 349.079 348.65ZM349.079 305.69L270.32 305.69C266.36 305.69 263.16 308.891 263.16 312.85C263.16 316.81 266.36 320.01 270.32 320.01L349.079 320.01C353.039 320.01 356.239 316.81 356.239 312.85C356.239 308.891 353.039 305.69 349.079 305.69Z" fill="#8d6c9f" fill-rule="nonzero" opacity="1" stroke="none" vectornator:layerName="path"/>
</g>
<g opacity="1" vectornator:layerName="Xbox Cross">
<path d="M189.242 307.46C186.941 307.46 185.069 305.588 185.069 303.287L185.069 274.08L155.863 274.08C153.562 274.08 151.69 272.208 151.69 269.908L151.69 242.092C151.69 239.792 153.562 237.92 155.863 237.92L185.069 237.92L185.069 208.713C185.069 206.412 186.941 204.54 189.242 204.54L217.058 204.54C219.358 204.54 221.23 206.412 221.23 208.713L221.23 237.92L250.437 237.92C252.737 237.92 254.609 239.792 254.609 242.092L254.609 269.908C254.609 272.208 252.737 274.08 250.437 274.08L221.23 274.08L221.23 303.287C221.23 305.588 219.358 307.46 217.058 307.46L189.242 307.46Z" fill="#e76f51" fill-rule="nonzero" opacity="1" stroke="none" vectornator:layerName="path"/>
<path d="M217.058 205.931C218.59 205.931 219.839 207.18 219.839 208.713L219.839 236.529L219.839 239.31L222.621 239.31L250.437 239.31C251.969 239.31 253.218 240.559 253.218 242.092L253.218 269.908C253.218 271.441 251.969 272.69 250.437 272.69L222.621 272.69L219.839 272.69L219.839 275.471L219.839 303.287C219.839 304.82 218.59 306.069 217.058 306.069L189.242 306.069C187.709 306.069 186.46 304.82 186.46 303.287L186.46 275.471L186.46 272.69L183.679 272.69L155.863 272.69C154.33 272.69 153.081 271.441 153.081 269.908L153.081 242.092C153.081 240.559 154.33 239.31 155.863 239.31L183.679 239.31L186.46 239.31L186.46 236.529L186.46 208.713C186.46 207.18 187.709 205.931 189.242 205.931L217.058 205.931M217.058 203.15L189.242 203.15C186.168 203.15 183.679 205.639 183.679 208.713L183.679 236.529L155.863 236.529C152.789 236.529 150.299 239.018 150.299 242.092L150.299 269.908C150.299 272.982 152.789 275.471 155.863 275.471L183.679 275.471L183.679 303.287C183.679 306.361 186.168 308.85 189.242 308.85L217.058 308.85C220.131 308.85 222.621 306.361 222.621 303.287L222.621 275.471L250.437 275.471C253.51 275.471 256 272.982 256 269.908L256 242.092C256 239.018 253.51 236.529 250.437 236.529L222.621 236.529L222.621 208.713C222.621 205.639 220.131 203.15 217.058 203.15L217.058 203.15Z" fill="#e76f51" fill-rule="nonzero" opacity="1" stroke="none" vectornator:layerName="path"/>
</g>
</g>
</svg>
