<?xml version="1.0" encoding="UTF-8" standalone="no"?>
<!DOCTYPE svg PUBLIC "-//W3C//DTD SVG 1.1//EN" "http://www.w3.org/Graphics/SVG/1.1/DTD/svg11.dtd">
<!-- Created with Vectornator (http://vectornator.io/) -->
<svg height="100%" stroke-miterlimit="10" style="fill-rule:nonzero;clip-rule:evenodd;stroke-linecap:round;stroke-linejoin:round;" version="1.1" viewBox="0 0 128 128" width="100%" xml:space="preserve" xmlns="http://www.w3.org/2000/svg" xmlns:vectornator="http://vectornator.io" xmlns:xlink="http://www.w3.org/1999/xlink">
<defs/>
<clipPath id="ArtboardFrame">
<rect height="128" width="128" x="0" y="0"/>
</clipPath>
<g clip-path="url(#ArtboardFrame)" id="Katman-1" vectornator:layerName="Katman 1">
<g opacity="1" vectornator:layerName="YouTube">
<path d="M54.4947 49.5084C52.824 48.3818 51.6399 46.6344 50.9358 44.2597C50.2317 41.8849 49.8796 38.7293 49.8796 34.7927L49.8796 29.4224C49.8796 25.441 50.2829 22.247 51.083 19.8339C51.8895 17.4207 53.1441 15.6605 54.8531 14.5595C56.5622 13.4522 58.8025 12.9017 61.5805 12.9017C64.3136 12.9017 66.5027 13.465 68.1542 14.5915C69.8056 15.7181 71.009 17.4783 71.7707 19.8659C72.5324 22.2598 72.9164 25.4474 72.9164 29.4224L72.9164 34.7927C72.9164 38.7357 72.5452 41.8977 71.8027 44.2917C71.0602 46.6856 69.8504 48.433 68.1862 49.5404C66.5155 50.6477 64.256 51.1982 61.4012 51.1982C58.4696 51.1982 56.1653 50.6349 54.4947 49.5084ZM63.8464 43.722C64.3072 42.5186 64.5377 40.5471 64.5377 37.814L64.5377 26.2924C64.5377 23.636 64.3072 21.6965 63.8464 20.474C63.3855 19.245 62.5662 18.6369 61.4012 18.6369C60.2747 18.6369 59.481 19.2514 59.0201 20.474C58.5592 21.7029 58.3288 23.6424 58.3288 26.2924L58.3288 37.814C58.3288 40.5471 58.5464 42.5186 58.9945 43.722C59.4362 44.9254 60.2427 45.5334 61.4076 45.5334C62.5662 45.527 63.3855 44.9254 63.8464 43.722ZM34.2295 34.1911L26.1259 4.9198C25.441 2.44265 27.3037-0.00888749 29.8769-0.00888749L29.8769-0.00888749C31.7139-0.00888749 33.3013 1.27129 33.6854 3.06994L36.3418 15.4941C37.1867 19.3154 37.8076 22.5734 38.2108 25.2618L38.4541 25.2618C38.7293 23.3352 39.3566 20.0963 40.3231 15.5517L43.0883 3.04434C43.4788 1.25849 45.0598-0.00888749 46.884-0.00888749L46.8904-0.00888749C49.47-0.00888749 51.3326 2.44905 50.6349 4.9326L42.429 34.1911L42.429 46.4936C42.429 48.7595 40.5919 50.5965 38.326 50.5965L38.326 50.5965C36.0601 50.5965 34.2231 48.7595 34.2231 46.4936L34.2231 34.1911L34.2295 34.1911ZM99.7938 17.7856L99.7938 47.0825C99.7938 49.0219 98.2192 50.5965 96.2797 50.5965L96.2797 50.5965C94.5514 50.5965 93.0792 49.342 92.8104 47.6393L92.5608 46.0775L92.3815 46.0775C90.6085 49.4892 87.9521 51.1982 84.4188 51.1982C81.9673 51.1982 80.1558 50.3917 78.9909 48.7851C77.8259 47.1785 77.2434 44.6629 77.2434 41.2448L77.2434 17.7856C77.2434 15.4877 79.1061 13.625 81.404 13.625L81.404 13.625C83.7019 13.625 85.5646 15.4877 85.5646 17.7856L85.5646 40.7648C85.5646 42.4162 85.7438 43.5876 86.1087 44.2917C86.4735 44.9958 87.0752 45.3478 87.9201 45.3478C88.6434 45.3478 89.3347 45.1302 90.0004 44.6821C90.6661 44.2405 91.159 43.6772 91.479 42.9923L91.479 17.7856C91.479 15.4877 93.3417 13.625 95.6396 13.625L95.6396 13.625C97.9311 13.625 99.7938 15.4877 99.7938 17.7856Z" fill="#ffffff" fill-rule="nonzero" opacity="1" stroke="none" vectornator:layerName="path"/>
<g opacity="1" vectornator:layerName="g">
<path d="M98.1359 88.2722C97.7775 87.8497 97.227 87.6385 96.4781 87.6385C95.7292 87.6385 95.1787 87.8625 94.8203 88.2978C94.4618 88.7394 94.225 89.4627 94.1098 90.4613C93.9882 91.4598 93.9306 92.9832 93.9306 95.0187L93.9306 97.259L99.0705 97.259L99.0705 95.0187C99.0705 93.0152 99.0001 91.4982 98.8656 90.4613C98.7376 89.4243 98.4944 88.6946 98.1359 88.2722ZM75.848 88.7074C75.4576 88.1506 74.9071 87.8689 74.1902 87.8689C73.5117 87.8689 72.8844 88.1378 72.3084 88.6818C71.7323 89.2259 71.3226 89.9236 71.0858 90.7685L71.0858 108.486C71.393 109.03 71.7899 109.434 72.2828 109.709C72.7756 109.978 73.3069 110.118 73.8894 110.118C74.6383 110.118 75.2272 109.85 75.6688 109.305C76.1105 108.761 76.4241 107.846 76.6098 106.553C76.7954 105.267 76.8914 103.481 76.8914 101.208L76.8914 97.1886C76.8914 94.7435 76.8146 92.8616 76.661 91.5366C76.5073 90.2116 76.2321 89.2643 75.848 88.7074Z" fill="#ffffff" fill-rule="nonzero" opacity="1" stroke="none" vectornator:layerName="path"/>
<path d="M108.806 57.5991L19.1938 57.5991C12.1528 57.5991 6.392 63.3599 6.392 70.4009L6.392 115.207C6.392 122.248 12.1528 128.009 19.1938 128.009L108.806 128.009C115.847 128.009 121.608 122.248 121.608 115.207L121.608 70.4009C121.608 63.3599 115.847 57.5991 108.806 57.5991ZM32.7125 114.695L32.7125 114.695C30.8114 114.695 29.2752 113.159 29.2752 111.258L29.2752 77.6339L25.1274 77.6339C23.5656 77.6339 22.3046 76.3665 22.3046 74.8111L22.3046 74.8111C22.3046 73.2493 23.572 71.9883 25.1274 71.9883L40.2975 71.9883C41.8593 71.9883 43.1203 73.2557 43.1203 74.8111L43.1203 74.8111C43.1203 76.3729 41.8529 77.6339 40.2975 77.6339L36.1497 77.6339L36.1497 111.264C36.1497 113.159 34.6135 114.695 32.7125 114.695ZM57.1062 114.695L57.1062 114.695C55.6468 114.695 54.4051 113.639 54.1746 112.199L53.9634 110.88L53.8098 110.88C52.3184 113.767 50.0781 115.207 47.0889 115.207C45.015 115.207 43.4916 114.529 42.5058 113.172C41.5201 111.815 41.0272 109.69 41.0272 106.809L41.0272 87.0048C41.0272 85.0653 42.6018 83.4907 44.5413 83.4907L44.5413 83.4907C46.4808 83.4907 48.0554 85.0653 48.0554 87.0048L48.0554 106.406C48.0554 107.795 48.209 108.793 48.5163 109.382C48.8235 109.978 49.3292 110.272 50.0461 110.272C50.6541 110.272 51.243 110.086 51.7999 109.709C52.3632 109.337 52.7728 108.857 53.0481 108.281L53.0481 86.9984C53.0481 85.0589 54.6227 83.4843 56.5622 83.4843L56.5622 83.4843C58.5016 83.4843 60.0763 85.0589 60.0763 86.9984L60.0763 111.731C60.0763 113.37 58.7449 114.695 57.1062 114.695ZM83.9644 101.612C83.9644 106.265 83.4011 109.683 82.2809 111.872C81.1608 114.061 79.4133 115.156 77.0386 115.156C75.7136 115.156 74.5103 114.849 73.4221 114.241C72.334 113.632 71.521 112.8 70.977 111.744L70.8233 111.744L70.7081 112.211C70.3561 113.671 69.0503 114.695 67.5525 114.695L67.5525 114.695C65.7602 114.695 64.3072 113.242 64.3072 111.45L64.3072 73.787C64.3072 71.9179 65.8243 70.4009 67.6933 70.4009L67.6933 70.4009C69.5624 70.4009 71.0794 71.9179 71.0794 73.787L71.0794 86.8448L71.1306 86.8448C71.7387 85.6542 72.6092 84.7005 73.7294 83.9708C74.8495 83.2411 76.0529 82.8762 77.3459 82.8762C79.0101 82.8762 80.3159 83.3179 81.2632 84.2012C82.2105 85.0845 82.9018 86.5119 83.3243 88.477C83.7467 90.4485 83.958 93.1817 83.958 96.6765L83.958 101.612L83.9644 101.612ZM105.695 97.8927C105.695 99.845 104.108 101.432 102.156 101.432L93.937 101.432L93.937 103.013C93.937 105.017 93.9946 106.521 94.1162 107.52C94.2378 108.518 94.481 109.254 94.8523 109.709C95.2235 110.17 95.7996 110.394 96.5805 110.394C97.6303 110.394 98.3536 109.984 98.744 109.171C98.9168 108.806 99.0577 108.326 99.1601 107.737C99.4225 106.239 100.792 105.183 102.309 105.273L102.309 105.273C104.127 105.382 105.471 107.065 105.113 108.851C104.754 110.624 104.102 112.154 103.116 113.044C101.535 114.471 99.3073 115.182 96.4205 115.182C92.9576 115.182 90.5317 114.093 89.1363 111.923C87.7409 109.754 87.0496 106.393 87.0496 101.842L87.0496 96.3885C87.0496 91.703 87.7729 88.285 89.2131 86.1279C90.6533 83.9708 93.124 82.8954 96.6189 82.8954C99.0257 82.8954 100.876 83.3371 102.168 84.2204C103.455 85.1037 104.364 86.4799 104.895 88.3426C105.42 90.2116 105.683 92.7912 105.683 96.0813L105.683 97.8927L105.695 97.8927Z" fill="#ffffff" fill-rule="nonzero" opacity="1" stroke="none" vectornator:layerName="path"/>
</g>
</g>
</g>
</svg>
