<?xml version="1.0" encoding="UTF-8" standalone="no"?>
<!DOCTYPE svg PUBLIC "-//W3C//DTD SVG 1.1//EN" "http://www.w3.org/Graphics/SVG/1.1/DTD/svg11.dtd">
<!-- Created with Vectornator (http://vectornator.io/) -->
<svg height="100%" stroke-miterlimit="10" style="fill-rule:nonzero;clip-rule:evenodd;stroke-linecap:round;stroke-linejoin:round;" version="1.1" viewBox="0 0 512 512" width="100%" xml:space="preserve" xmlns="http://www.w3.org/2000/svg" xmlns:vectornator="http://vectornator.io" xmlns:xlink="http://www.w3.org/1999/xlink">
<defs/>
<g id="Katman-1" vectornator:layerName="Katman 1">
<g opacity="1" vectornator:layerName="Sofa">
<path d="M86.1745 137.824L425.825 137.824C442.137 137.824 455.36 151.048 455.36 167.359L455.36 307.65L455.36 307.65L56.6397 307.65L56.6397 307.65L56.6397 167.359C56.6397 151.048 69.8629 137.824 86.1745 137.824Z" fill="#c4939c" fill-rule="nonzero" opacity="1" stroke="none" vectornator:layerName="path"/>
<path d="M425.825 211.662L455.36 211.662C471.672 211.662 484.895 224.885 484.895 241.196L484.895 359.336C484.895 367.492 478.284 374.103 470.128 374.103L425.825 374.103C417.67 374.103 411.058 367.492 411.058 359.336L411.058 226.429C411.058 218.273 417.67 211.662 425.825 211.662ZM56.6397 211.662L86.1745 211.662C94.3304 211.662 100.942 218.273 100.942 226.429L100.942 359.336C100.942 367.492 94.3304 374.103 86.1745 374.103L41.8722 374.103C33.7164 374.103 27.1048 367.492 27.1048 359.336L27.1048 241.196C27.1048 224.885 40.328 211.662 56.6397 211.662Z" fill="#cda1a7" fill-rule="nonzero" opacity="1" stroke="none" vectornator:layerName="path"/>
<path d="M115.709 403.638L78.7908 403.638L73.7699 433.616C73.1774 437.228 74.2204 440.917 76.6167 443.684C79.0129 446.451 82.5147 448.011 86.1745 447.941L86.1745 447.941C90.8301 447.935 95.0854 445.307 97.1763 441.147L115.709 403.638ZM433.209 403.638L396.291 403.638L415.045 441.147C417.1 445.237 421.25 447.852 425.825 447.941L425.825 447.941C429.447 447.945 432.887 446.357 435.233 443.599C437.579 440.84 438.594 437.19 438.009 433.616L433.209 403.638Z" fill="#c2cde7" fill-rule="nonzero" opacity="1" stroke="none" vectornator:layerName="path"/>
<path d="M41.8722 300.266L470.128 300.266C478.284 300.266 484.895 306.878 484.895 315.034L484.895 374.103C484.895 390.415 471.672 403.638 455.36 403.638L56.6397 403.638C40.328 403.638 27.1048 390.415 27.1048 374.103L27.1048 315.034C27.1048 306.878 33.7164 300.266 41.8722 300.266Z" fill="#cda1a7" fill-rule="nonzero" opacity="1" stroke="none" vectornator:layerName="path"/>
<path d="M425.825 211.662L470.128 211.662C478.284 211.662 484.895 218.273 484.895 226.429L484.895 226.429C484.895 238.663 474.978 248.58 462.744 248.58L433.209 248.58C420.975 248.58 411.058 238.663 411.058 226.429L411.058 226.429C411.058 218.273 417.67 211.662 425.825 211.662ZM41.8722 211.662L86.1745 211.662C94.3304 211.662 100.942 218.273 100.942 226.429L100.942 226.429C100.942 238.663 91.0246 248.58 78.7908 248.58L49.256 248.58C37.0222 248.58 27.1048 238.663 27.1048 226.429L27.1048 226.429C27.1048 218.273 33.7164 211.662 41.8722 211.662Z" fill="#dbb2ba" fill-rule="nonzero" opacity="1" stroke="none" vectornator:layerName="path"/>
<path d="M27.1048 374.103L484.895 374.103L484.895 374.103L484.895 381.487C484.895 393.721 474.978 403.638 462.744 403.638L49.256 403.638C37.0222 403.638 27.1048 393.721 27.1048 381.487L27.1048 374.103L27.1048 374.103Z" fill="#c4939c" fill-rule="nonzero" opacity="1" stroke="none" vectornator:layerName="path"/>
<path d="M71.4071 137.824L440.593 137.824C448.749 137.824 455.36 144.436 455.36 152.592L455.36 152.592C455.36 164.826 445.443 174.743 433.209 174.743L78.7908 174.743C66.5571 174.743 56.6397 164.826 56.6397 152.592L56.6397 152.592C56.6397 144.436 63.2513 137.824 71.4071 137.824Z" fill="#dbb2ba" fill-rule="nonzero" opacity="1" stroke="none" vectornator:layerName="path"/>
<path d="M462.744 205.016L462.744 167.359C462.744 146.97 446.215 130.441 425.825 130.441L86.1745 130.441C65.785 130.441 49.256 146.97 49.256 167.359L49.256 205.016C32.0642 208.526 19.7175 223.65 19.7211 241.196L19.7211 374.103C19.7211 394.493 36.2501 411.022 56.6397 411.022L70.078 411.022L66.5338 432.361C65.1918 441.835 70.846 450.904 79.9431 453.87C89.0401 456.835 98.9532 452.841 103.452 444.396L120.287 411.022L391.713 411.022L408.4 444.396C412.899 452.841 422.812 456.835 431.909 453.87C441.006 450.904 446.66 441.835 445.318 432.361L441.922 411.022L455.36 411.022C475.75 411.022 492.279 394.493 492.279 374.103L492.279 241.196C492.282 223.65 479.936 208.526 462.744 205.016ZM477.511 241.196L477.511 294.212C475.153 293.317 472.65 292.866 470.128 292.882L418.442 292.882L418.442 226.429C418.442 222.351 421.748 219.045 425.825 219.045L455.36 219.045C457.882 219.029 460.386 219.48 462.744 220.374C471.573 223.496 477.485 231.832 477.511 241.196ZM86.1745 145.208L425.825 145.208C438.059 145.208 447.977 155.126 447.977 167.359L447.977 204.278L425.825 204.278C413.592 204.278 403.674 214.195 403.674 226.429L403.674 292.882L108.326 292.882L108.326 226.429C108.326 214.195 98.4083 204.278 86.1745 204.278L64.0234 204.278L64.0234 167.359C64.0234 155.126 73.9408 145.208 86.1745 145.208ZM34.4885 241.196C34.5148 231.832 40.427 223.496 49.256 220.374C51.6142 219.48 54.1175 219.029 56.6397 219.045L86.1745 219.045C90.2524 219.045 93.5582 222.351 93.5582 226.429L93.5582 292.882L41.8722 292.882C39.3501 292.866 36.8468 293.317 34.4885 294.212L34.4885 241.196ZM90.3832 437.825C89.2875 440.013 86.7562 441.072 84.4289 440.314C82.1016 439.557 80.6779 437.212 81.0798 434.797L85.067 411.022L103.748 411.022L90.3832 437.825ZM430.92 434.797C431.322 437.212 429.898 439.557 427.571 440.314C425.244 441.072 422.713 440.013 421.617 437.825L408.252 411.022L426.933 411.022L430.92 434.797ZM455.36 396.255L56.6397 396.255C47.2752 396.228 38.939 390.316 35.8176 381.487L396.291 381.487C400.369 381.487 403.674 378.181 403.674 374.103C403.674 370.025 400.369 366.72 396.291 366.72L34.4885 366.72L34.4885 315.034C34.4885 310.956 37.7943 307.65 41.8722 307.65L470.128 307.65C474.206 307.65 477.511 310.956 477.511 315.034L477.511 374.103C477.493 376.279 477.169 378.441 476.552 380.527C473.722 389.864 465.117 396.251 455.36 396.255Z" fill="#264653" fill-rule="nonzero" opacity="1" stroke="none" vectornator:layerName="path"/>
<path d="M455.36 366.72L425.825 366.72C421.748 366.72 418.442 370.025 418.442 374.103C418.442 378.181 421.748 381.487 425.825 381.487L455.36 381.487C459.438 381.487 462.744 378.181 462.744 374.103C462.744 370.025 459.438 366.72 455.36 366.72ZM145.244 278.115C149.322 278.115 152.628 274.809 152.628 270.731L152.628 255.964C152.628 251.886 149.322 248.58 145.244 248.58C141.166 248.58 137.861 251.886 137.861 255.964L137.861 270.731C137.861 274.809 141.166 278.115 145.244 278.115ZM182.163 278.115C186.241 278.115 189.547 274.809 189.547 270.731L189.547 255.964C189.547 251.886 186.241 248.58 182.163 248.58C178.085 248.58 174.779 251.886 174.779 255.964L174.779 270.731C174.779 274.809 178.085 278.115 182.163 278.115ZM219.081 278.115C223.159 278.115 226.465 274.809 226.465 270.731L226.465 255.964C226.465 251.886 223.159 248.58 219.081 248.58C215.004 248.58 211.698 251.886 211.698 255.964L211.698 270.731C211.698 274.809 215.004 278.115 219.081 278.115ZM256 278.115C260.078 278.115 263.384 274.809 263.384 270.731L263.384 255.964C263.384 251.886 260.078 248.58 256 248.58C251.922 248.58 248.616 251.886 248.616 255.964L248.616 270.731C248.616 274.809 251.922 278.115 256 278.115ZM292.919 278.115C296.996 278.115 300.302 274.809 300.302 270.731L300.302 255.964C300.302 251.886 296.996 248.58 292.919 248.58C288.841 248.58 285.535 251.886 285.535 255.964L285.535 270.731C285.535 274.809 288.841 278.115 292.919 278.115ZM329.837 278.115C333.915 278.115 337.221 274.809 337.221 270.731L337.221 255.964C337.221 251.886 333.915 248.58 329.837 248.58C325.759 248.58 322.453 251.886 322.453 255.964L322.453 270.731C322.453 274.809 325.759 278.115 329.837 278.115ZM366.756 278.115C370.834 278.115 374.139 274.809 374.139 270.731L374.139 255.964C374.139 251.886 370.834 248.58 366.756 248.58C362.678 248.58 359.372 251.886 359.372 255.964L359.372 270.731C359.372 274.809 362.678 278.115 366.756 278.115Z" fill="#264653" fill-rule="nonzero" opacity="1" stroke="none" vectornator:layerName="path"/>
</g>
<g opacity="1" vectornator:layerName="Grupla 1">
<path d="M277.414 117.407C277.414 72.9094 325.507 36.8395 384.846 36.8395C444.186 36.8395 492.279 72.9094 492.279 117.407C492.279 161.905 444.186 197.975 384.846 197.975L371.419 197.975C359.996 209.398 338.856 220.82 316.258 223.983C311.664 224.628 308.166 219.884 310.1 215.67C314.394 206.332 317.698 192.727 317.698 180.36L317.698 180.36C292.22 165.05 277.396 141.887 277.414 117.407" fill="#ffffff" fill-rule="nonzero" opacity="1" stroke="#264653" stroke-linecap="butt" stroke-linejoin="miter" stroke-width="8.95073" vectornator:layerName="path"/>
<g opacity="1" vectornator:layerName="Xbox Cross">
<path d="M371.173 163.942C368.912 163.942 367.071 162.102 367.071 159.84L367.071 131.127L338.358 131.127C336.096 131.127 334.256 129.286 334.256 127.025L334.256 99.6783C334.256 97.4168 336.096 95.5763 338.358 95.5763L367.071 95.5763L367.071 66.8628C367.071 64.6012 368.912 62.7608 371.173 62.7608L398.52 62.7608C400.781 62.7608 402.622 64.6012 402.622 66.8628L402.622 95.5763L431.335 95.5763C433.597 95.5763 435.437 97.4168 435.437 99.6783L435.437 127.025C435.437 129.286 433.597 131.127 431.335 131.127L402.622 131.127L402.622 159.84C402.622 162.102 400.781 163.942 398.52 163.942L371.173 163.942Z" fill="#e76f51" fill-rule="nonzero" opacity="1" stroke="none" vectornator:layerName="path"/>
<path d="M398.52 64.1281C400.026 64.1281 401.254 65.356 401.254 66.8628L401.254 94.209L401.254 96.9437L403.989 96.9437L431.335 96.9437C432.842 96.9437 434.07 98.1715 434.07 99.6783L434.07 127.025C434.07 128.531 432.842 129.759 431.335 129.759L403.989 129.759L401.254 129.759L401.254 132.494L401.254 159.84C401.254 161.347 400.026 162.575 398.52 162.575L371.173 162.575C369.667 162.575 368.439 161.347 368.439 159.84L368.439 132.494L368.439 129.759L365.704 129.759L338.358 129.759C336.851 129.759 335.623 128.531 335.623 127.025L335.623 99.6783C335.623 98.1715 336.851 96.9437 338.358 96.9437L365.704 96.9437L368.439 96.9437L368.439 94.209L368.439 66.8628C368.439 65.356 369.667 64.1281 371.173 64.1281L398.52 64.1281M398.52 61.3935L371.173 61.3935C368.152 61.3935 365.704 63.841 365.704 66.8628L365.704 94.209L338.358 94.209C335.336 94.209 332.889 96.6565 332.889 99.6783L332.889 127.025C332.889 130.046 335.336 132.494 338.358 132.494L365.704 132.494L365.704 159.84C365.704 162.862 368.152 165.309 371.173 165.309L398.52 165.309C401.541 165.309 403.989 162.862 403.989 159.84L403.989 132.494L431.335 132.494C434.357 132.494 436.804 130.046 436.804 127.025L436.804 99.6783C436.804 96.6565 434.357 94.209 431.335 94.209L403.989 94.209L403.989 66.8628C403.989 63.841 401.541 61.3935 398.52 61.3935L398.52 61.3935Z" fill="#e76f51" fill-rule="nonzero" opacity="1" stroke="none" vectornator:layerName="path"/>
</g>
</g>
</g>
</svg>
