<?xml version="1.0" encoding="UTF-8" standalone="no"?>
<!DOCTYPE svg PUBLIC "-//W3C//DTD SVG 1.1//EN" "http://www.w3.org/Graphics/SVG/1.1/DTD/svg11.dtd">
<!-- Created with Vectornator (http://vectornator.io/) -->
<svg height="100%" stroke-miterlimit="10" style="fill-rule:nonzero;clip-rule:evenodd;stroke-linecap:round;stroke-linejoin:round;" version="1.1" viewBox="0 0 2560 900" width="100%" xml:space="preserve" xmlns="http://www.w3.org/2000/svg" xmlns:xlink="http://www.w3.org/1999/xlink">
<defs/>
<clipPath id="ArtboardFrame">
<rect height="900" width="2560" x="0" y="0"/>
</clipPath>
<g clip-path="url(#ArtboardFrame)" id="Katman-1">
<path d="M1.42109e-14 0L2560 0L2560 900L1.42109e-14 900L1.42109e-14 0Z" fill="#e76f51" fill-rule="nonzero" opacity="1" stroke="none"/>
<g opacity="1">
<g fill="#fdfcef" opacity="1" stroke="none">
<path d="M470.291 151.04C479.763 151.04 488.062 152.853 495.187 156.48C502.313 160.107 507.817 165.312 511.699 172.096C515.582 178.88 517.523 186.795 517.523 195.84C517.523 204.885 515.582 212.736 511.699 219.392C507.817 226.048 502.313 231.147 495.187 234.688C488.062 238.229 479.763 240 470.291 240L441.235 240L441.235 151.04L470.291 151.04ZM470.291 228.096C480.702 228.096 488.681 225.28 494.227 219.648C499.774 214.016 502.547 206.08 502.547 195.84C502.547 185.515 499.774 177.451 494.227 171.648C488.681 165.845 480.702 162.944 470.291 162.944L455.827 162.944L455.827 228.096L470.291 228.096Z"/>
<path d="M539.411 160.128C536.766 160.128 534.547 159.232 532.755 157.44C530.963 155.648 530.067 153.429 530.067 150.784C530.067 148.139 530.963 145.92 532.755 144.128C534.547 142.336 536.766 141.44 539.411 141.44C541.971 141.44 544.147 142.336 545.939 144.128C547.731 145.92 548.627 148.139 548.627 150.784C548.627 153.429 547.731 155.648 545.939 157.44C544.147 159.232 541.971 160.128 539.411 160.128ZM546.579 169.472L546.579 240L531.987 240L531.987 169.472L546.579 169.472Z"/>
<path d="M601.363 168.32C606.91 168.32 611.881 169.472 616.275 171.776C620.67 174.08 624.105 177.493 626.579 182.016C629.054 186.539 630.291 192 630.291 198.4L630.291 240L615.827 240L615.827 200.576C615.827 194.261 614.249 189.419 611.091 186.048C607.934 182.677 603.625 180.992 598.163 180.992C592.702 180.992 588.371 182.677 585.171 186.048C581.971 189.419 580.371 194.261 580.371 200.576L580.371 240L565.779 240L565.779 169.472L580.371 169.472L580.371 177.536C582.761 174.635 585.811 172.373 589.523 170.752C593.235 169.131 597.182 168.32 601.363 168.32Z"/>
<path d="M663.443 145.28L663.443 240L648.851 240L648.851 145.28L663.443 145.28Z"/>
<path d="M747.283 203.008C747.283 205.653 747.113 208.043 746.771 210.176L692.883 210.176C693.31 215.808 695.401 220.331 699.155 223.744C702.91 227.157 707.518 228.864 712.979 228.864C720.83 228.864 726.377 225.579 729.619 219.008L745.363 219.008C743.23 225.493 739.369 230.805 733.779 234.944C728.19 239.083 721.257 241.152 712.979 241.152C706.238 241.152 700.201 239.637 694.867 236.608C689.534 233.579 685.353 229.312 682.323 223.808C679.294 218.304 677.779 211.925 677.779 204.672C677.779 197.419 679.251 191.04 682.195 185.536C685.139 180.032 689.278 175.787 694.611 172.8C699.945 169.813 706.067 168.32 712.979 168.32C719.635 168.32 725.566 169.771 730.771 172.672C735.977 175.573 740.03 179.648 742.931 184.896C745.833 190.144 747.283 196.181 747.283 203.008ZM732.051 198.4C731.966 193.024 730.046 188.715 726.291 185.472C722.537 182.229 717.886 180.608 712.339 180.608C707.305 180.608 702.995 182.208 699.411 185.408C695.827 188.608 693.694 192.939 693.011 198.4L732.051 198.4Z"/>
<path d="M778.643 181.376L778.643 220.416C778.643 223.061 779.262 224.96 780.499 226.112C781.737 227.264 783.849 227.84 786.835 227.84L795.795 227.84L795.795 240L784.275 240C777.705 240 772.67 238.464 769.171 235.392C765.673 232.32 763.923 227.328 763.923 220.416L763.923 181.376L755.603 181.376L755.603 169.472L763.923 169.472L763.923 151.936L778.643 151.936L778.643 169.472L795.795 169.472L795.795 181.376L778.643 181.376Z"/>
<path d="M816.659 160.128C814.014 160.128 811.795 159.232 810.003 157.44C808.211 155.648 807.315 153.429 807.315 150.784C807.315 148.139 808.211 145.92 810.003 144.128C811.795 142.336 814.014 141.44 816.659 141.44C819.219 141.44 821.395 142.336 823.187 144.128C824.979 145.92 825.875 148.139 825.875 150.784C825.875 153.429 824.979 155.648 823.187 157.44C821.395 159.232 819.219 160.128 816.659 160.128ZM823.827 169.472L823.827 240L809.235 240L809.235 169.472L823.827 169.472Z"/>
<path d="M857.619 145.28L857.619 240L843.027 240L843.027 145.28L857.619 145.28Z"/>
<path d="M941.459 203.008C941.459 205.653 941.289 208.043 940.947 210.176L887.059 210.176C887.486 215.808 889.577 220.331 893.331 223.744C897.086 227.157 901.694 228.864 907.155 228.864C915.006 228.864 920.553 225.579 923.795 219.008L939.539 219.008C937.406 225.493 933.545 230.805 927.955 234.944C922.366 239.083 915.433 241.152 907.155 241.152C900.414 241.152 894.377 239.637 889.043 236.608C883.71 233.579 879.529 229.312 876.499 223.808C873.47 218.304 871.955 211.925 871.955 204.672C871.955 197.419 873.427 191.04 876.371 185.536C879.315 180.032 883.454 175.787 888.787 172.8C894.121 169.813 900.243 168.32 907.155 168.32C913.811 168.32 919.742 169.771 924.947 172.672C930.153 175.573 934.206 179.648 937.107 184.896C940.009 190.144 941.459 196.181 941.459 203.008ZM926.227 198.4C926.142 193.024 924.222 188.715 920.467 185.472C916.713 182.229 912.062 180.608 906.515 180.608C901.481 180.608 897.171 182.208 893.587 185.408C890.003 188.608 887.87 192.939 887.187 198.4L926.227 198.4Z"/>
<path d="M970.387 179.712C972.521 176.128 975.358 173.333 978.899 171.328C982.441 169.323 986.643 168.32 991.507 168.32L991.507 183.424L987.795 183.424C982.078 183.424 977.747 184.875 974.803 187.776C971.859 190.677 970.387 195.712 970.387 202.88L970.387 240L955.795 240L955.795 169.472L970.387 169.472L970.387 179.712Z"/>
<path d="M1012.37 160.128C1009.73 160.128 1007.51 159.232 1005.72 157.44C1003.92 155.648 1003.03 153.429 1003.03 150.784C1003.03 148.139 1003.92 145.92 1005.72 144.128C1007.51 142.336 1009.73 141.44 1012.37 141.44C1014.93 141.44 1017.11 142.336 1018.9 144.128C1020.69 145.92 1021.59 148.139 1021.59 150.784C1021.59 153.429 1020.69 155.648 1018.9 157.44C1017.11 159.232 1014.93 160.128 1012.37 160.128ZM1019.54 169.472L1019.54 240L1004.95 240L1004.95 169.472L1019.54 169.472Z"/>
<path d="M1124.12 168.32C1129.66 168.32 1134.63 169.472 1139.03 171.776C1143.42 174.08 1146.88 177.493 1149.4 182.016C1151.91 186.539 1153.17 192 1153.17 198.4L1153.17 240L1138.71 240L1138.71 200.576C1138.71 194.261 1137.13 189.419 1133.97 186.048C1130.81 182.677 1126.5 180.992 1121.04 180.992C1115.58 180.992 1111.25 182.677 1108.05 186.048C1104.85 189.419 1103.25 194.261 1103.25 200.576L1103.25 240L1088.79 240L1088.79 200.576C1088.79 194.261 1087.21 189.419 1084.05 186.048C1080.89 182.677 1076.58 180.992 1071.12 180.992C1065.66 180.992 1061.33 182.677 1058.13 186.048C1054.93 189.419 1053.33 194.261 1053.33 200.576L1053.33 240L1038.74 240L1038.74 169.472L1053.33 169.472L1053.33 177.536C1055.72 174.635 1058.75 172.373 1062.42 170.752C1066.09 169.131 1070.01 168.32 1074.2 168.32C1079.83 168.32 1084.86 169.515 1089.3 171.904C1093.74 174.293 1097.15 177.749 1099.54 182.272C1101.67 178.005 1105 174.613 1109.52 172.096C1114.05 169.579 1118.91 168.32 1124.12 168.32Z"/>
<path d="M1179.16 160.128C1176.51 160.128 1174.29 159.232 1172.5 157.44C1170.71 155.648 1169.81 153.429 1169.81 150.784C1169.81 148.139 1170.71 145.92 1172.5 144.128C1174.29 142.336 1176.51 141.44 1179.16 141.44C1181.72 141.44 1183.89 142.336 1185.68 144.128C1187.48 145.92 1188.37 148.139 1188.37 150.784C1188.37 153.429 1187.48 155.648 1185.68 157.44C1183.89 159.232 1181.72 160.128 1179.16 160.128ZM1186.32 169.472L1186.32 240L1171.73 240L1171.73 169.472L1186.32 169.472Z"/>
<path d="M1218.45 228.096L1250.45 228.096L1250.45 240L1201.56 240L1201.56 228.096L1233.68 181.376L1201.56 181.376L1201.56 169.472L1250.45 169.472L1250.45 181.376L1218.45 228.096Z"/>
<path d="M1273.24 160.128C1270.59 160.128 1268.37 159.232 1266.58 157.44C1264.79 155.648 1263.89 153.429 1263.89 150.784C1263.89 148.139 1264.79 145.92 1266.58 144.128C1268.37 142.336 1270.59 141.44 1273.24 141.44C1275.8 141.44 1277.97 142.336 1279.76 144.128C1281.56 145.92 1282.45 148.139 1282.45 150.784C1282.45 153.429 1281.56 155.648 1279.76 157.44C1277.97 159.232 1275.8 160.128 1273.24 160.128ZM1280.4 169.472L1280.4 240L1265.81 240L1265.81 169.472L1280.4 169.472Z"/>
<path d="M542.931 432.896C536.958 432.896 531.582 431.851 526.803 429.76C522.025 427.669 518.27 424.704 515.539 420.864C512.809 417.024 511.443 412.544 511.443 407.424L527.059 407.424C527.401 411.264 528.915 414.421 531.603 416.896C534.291 419.371 538.067 420.608 542.931 420.608C547.966 420.608 551.891 419.392 554.707 416.96C557.523 414.528 558.931 411.392 558.931 407.552C558.931 404.565 558.057 402.133 556.307 400.256C554.558 398.379 552.382 396.928 549.779 395.904C547.177 394.88 543.571 393.771 538.963 392.576C533.161 391.04 528.446 389.483 524.819 387.904C521.193 386.325 518.099 383.872 515.539 380.544C512.979 377.216 511.699 372.779 511.699 367.232C511.699 362.112 512.979 357.632 515.539 353.792C518.099 349.952 521.683 347.008 526.291 344.96C530.899 342.912 536.233 341.888 542.291 341.888C550.91 341.888 557.971 344.043 563.475 348.352C568.979 352.661 572.03 358.571 572.627 366.08L556.499 366.08C556.243 362.837 554.707 360.064 551.891 357.76C549.075 355.456 545.363 354.304 540.755 354.304C536.574 354.304 533.161 355.371 530.515 357.504C527.87 359.637 526.547 362.709 526.547 366.72C526.547 369.451 527.379 371.691 529.043 373.44C530.707 375.189 532.819 376.576 535.379 377.6C537.939 378.624 541.438 379.733 545.875 380.928C551.763 382.549 556.563 384.171 560.275 385.792C563.987 387.413 567.145 389.909 569.747 393.28C572.35 396.651 573.651 401.152 573.651 406.784C573.651 411.307 572.435 415.573 570.003 419.584C567.571 423.595 564.03 426.816 559.379 429.248C554.729 431.68 549.246 432.896 542.931 432.896Z"/>
<path d="M598.355 352.128C595.71 352.128 593.491 351.232 591.699 349.44C589.907 347.648 589.011 345.429 589.011 342.784C589.011 340.139 589.907 337.92 591.699 336.128C593.491 334.336 595.71 333.44 598.355 333.44C600.915 333.44 603.091 334.336 604.883 336.128C606.675 337.92 607.571 340.139 607.571 342.784C607.571 345.429 606.675 347.648 604.883 349.44C603.091 351.232 600.915 352.128 598.355 352.128ZM605.523 361.472L605.523 432L590.931 432L590.931 361.472L605.523 361.472Z"/>
<path d="M641.747 373.376L641.747 412.416C641.747 415.061 642.366 416.96 643.603 418.112C644.841 419.264 646.953 419.84 649.939 419.84L658.899 419.84L658.899 432L647.379 432C640.809 432 635.774 430.464 632.275 427.392C628.777 424.32 627.027 419.328 627.027 412.416L627.027 373.376L618.707 373.376L618.707 361.472L627.027 361.472L627.027 343.936L641.747 343.936L641.747 361.472L658.899 361.472L658.899 373.376L641.747 373.376Z"/>
<path d="M736.979 395.008C736.979 397.653 736.809 400.043 736.467 402.176L682.579 402.176C683.006 407.808 685.097 412.331 688.851 415.744C692.606 419.157 697.214 420.864 702.675 420.864C710.526 420.864 716.073 417.579 719.315 411.008L735.059 411.008C732.926 417.493 729.065 422.805 723.475 426.944C717.886 431.083 710.953 433.152 702.675 433.152C695.934 433.152 689.897 431.637 684.563 428.608C679.23 425.579 675.049 421.312 672.019 415.808C668.99 410.304 667.475 403.925 667.475 396.672C667.475 389.419 668.947 383.04 671.891 377.536C674.835 372.032 678.974 367.787 684.307 364.8C689.641 361.813 695.763 360.32 702.675 360.32C709.331 360.32 715.262 361.771 720.467 364.672C725.673 367.573 729.726 371.648 732.627 376.896C735.529 382.144 736.979 388.181 736.979 395.008ZM721.747 390.4C721.662 385.024 719.742 380.715 715.987 377.472C712.233 374.229 707.582 372.608 702.035 372.608C697.001 372.608 692.691 374.208 689.107 377.408C685.523 380.608 683.39 384.939 682.707 390.4L721.747 390.4Z"/>
<path d="M836.691 360.32C842.238 360.32 847.209 361.472 851.603 363.776C855.998 366.08 859.454 369.493 861.971 374.016C864.489 378.539 865.747 384 865.747 390.4L865.747 432L851.283 432L851.283 392.576C851.283 386.261 849.705 381.419 846.547 378.048C843.39 374.677 839.081 372.992 833.619 372.992C828.158 372.992 823.827 374.677 820.627 378.048C817.427 381.419 815.827 386.261 815.827 392.576L815.827 432L801.363 432L801.363 392.576C801.363 386.261 799.785 381.419 796.627 378.048C793.47 374.677 789.161 372.992 783.699 372.992C778.238 372.992 773.907 374.677 770.707 378.048C767.507 381.419 765.907 386.261 765.907 392.576L765.907 432L751.315 432L751.315 361.472L765.907 361.472L765.907 369.536C768.297 366.635 771.326 364.373 774.995 362.752C778.665 361.131 782.59 360.32 786.771 360.32C792.403 360.32 797.438 361.515 801.875 363.904C806.313 366.293 809.726 369.749 812.115 374.272C814.249 370.005 817.577 366.613 822.099 364.096C826.622 361.579 831.486 360.32 836.691 360.32Z"/>
<path d="M891.731 352.128C889.086 352.128 886.867 351.232 885.075 349.44C883.283 347.648 882.387 345.429 882.387 342.784C882.387 340.139 883.283 337.92 885.075 336.128C886.867 334.336 889.086 333.44 891.731 333.44C894.291 333.44 896.467 334.336 898.259 336.128C900.051 337.92 900.947 340.139 900.947 342.784C900.947 345.429 900.051 347.648 898.259 349.44C896.467 351.232 894.291 352.128 891.731 352.128ZM898.899 361.472L898.899 432L884.307 432L884.307 361.472L898.899 361.472Z"/>
<path d="M931.027 420.096L963.027 420.096L963.027 432L914.131 432L914.131 420.096L946.259 373.376L914.131 373.376L914.131 361.472L963.027 361.472L963.027 373.376L931.027 420.096Z"/>
<path d="M973.523 396.416C973.523 389.333 974.995 383.061 977.939 377.6C980.883 372.139 984.894 367.893 989.971 364.864C995.049 361.835 1000.7 360.32 1006.93 360.32C1011.54 360.32 1016.08 361.323 1020.56 363.328C1025.04 365.333 1028.61 368 1031.25 371.328L1031.25 337.28L1045.97 337.28L1045.97 432L1031.25 432L1031.25 421.376C1028.86 424.789 1025.56 427.605 1021.33 429.824C1017.11 432.043 1012.26 433.152 1006.8 433.152C1000.66 433.152 995.049 431.595 989.971 428.48C984.894 425.365 980.883 421.013 977.939 415.424C974.995 409.835 973.523 403.499 973.523 396.416ZM1031.25 396.672C1031.25 391.808 1030.25 387.584 1028.24 384C1026.24 380.416 1023.61 377.685 1020.37 375.808C1017.13 373.931 1013.63 372.992 1009.88 372.992C1006.12 372.992 1002.62 373.909 999.379 375.744C996.137 377.579 993.513 380.267 991.507 383.808C989.502 387.349 988.499 391.552 988.499 396.416C988.499 401.28 989.502 405.547 991.507 409.216C993.513 412.885 996.158 415.68 999.443 417.6C1002.73 419.52 1006.21 420.48 1009.88 420.48C1013.63 420.48 1017.13 419.541 1020.37 417.664C1023.61 415.787 1026.24 413.035 1028.24 409.408C1030.25 405.781 1031.25 401.536 1031.25 396.672Z"/>
<path d="M1129.81 395.008C1129.81 397.653 1129.64 400.043 1129.3 402.176L1075.41 402.176C1075.84 407.808 1077.93 412.331 1081.68 415.744C1085.44 419.157 1090.05 420.864 1095.51 420.864C1103.36 420.864 1108.9 417.579 1112.15 411.008L1127.89 411.008C1125.76 417.493 1121.9 422.805 1116.31 426.944C1110.72 431.083 1103.78 433.152 1095.51 433.152C1088.77 433.152 1082.73 431.637 1077.4 428.608C1072.06 425.579 1067.88 421.312 1064.85 415.808C1061.82 410.304 1060.31 403.925 1060.31 396.672C1060.31 389.419 1061.78 383.04 1064.72 377.536C1067.67 372.032 1071.81 367.787 1077.14 364.8C1082.47 361.813 1088.6 360.32 1095.51 360.32C1102.16 360.32 1108.09 361.771 1113.3 364.672C1118.5 367.573 1122.56 371.648 1125.46 376.896C1128.36 382.144 1129.81 388.181 1129.81 395.008ZM1114.58 390.4C1114.49 385.024 1112.57 380.715 1108.82 377.472C1105.06 374.229 1100.41 372.608 1094.87 372.608C1089.83 372.608 1085.52 374.208 1081.94 377.408C1078.36 380.608 1076.22 384.939 1075.54 390.4L1114.58 390.4Z"/>
<path d="M1179.73 360.32C1185.28 360.32 1190.25 361.472 1194.64 363.776C1199.04 366.08 1202.47 369.493 1204.95 374.016C1207.42 378.539 1208.66 384 1208.66 390.4L1208.66 432L1194.2 432L1194.2 392.576C1194.2 386.261 1192.62 381.419 1189.46 378.048C1186.3 374.677 1181.99 372.992 1176.53 372.992C1171.07 372.992 1166.74 374.677 1163.54 378.048C1160.34 381.419 1158.74 386.261 1158.74 392.576L1158.74 432L1144.15 432L1144.15 361.472L1158.74 361.472L1158.74 369.536C1161.13 366.635 1164.18 364.373 1167.89 362.752C1171.6 361.131 1175.55 360.32 1179.73 360.32Z"/>
<path d="M404.243 535.04C413.715 535.04 422.014 536.853 429.139 540.48C436.265 544.107 441.769 549.312 445.651 556.096C449.534 562.88 451.475 570.795 451.475 579.84C451.475 588.885 449.534 596.736 445.651 603.392C441.769 610.048 436.265 615.147 429.139 618.688C422.014 622.229 413.715 624 404.243 624L375.187 624L375.187 535.04L404.243 535.04ZM404.243 612.096C414.654 612.096 422.633 609.28 428.179 603.648C433.726 598.016 436.499 590.08 436.499 579.84C436.499 569.515 433.726 561.451 428.179 555.648C422.633 549.845 414.654 546.944 404.243 546.944L389.779 546.944L389.779 612.096L404.243 612.096Z"/>
<path d="M473.363 544.128C470.718 544.128 468.499 543.232 466.707 541.44C464.915 539.648 464.019 537.429 464.019 534.784C464.019 532.139 464.915 529.92 466.707 528.128C468.499 526.336 470.718 525.44 473.363 525.44C475.923 525.44 478.099 526.336 479.891 528.128C481.683 529.92 482.579 532.139 482.579 534.784C482.579 537.429 481.683 539.648 479.891 541.44C478.099 543.232 475.923 544.128 473.363 544.128ZM480.531 553.472L480.531 624L465.939 624L465.939 553.472L480.531 553.472Z"/>
<path d="M535.315 552.32C540.862 552.32 545.833 553.472 550.227 555.776C554.622 558.08 558.057 561.493 560.531 566.016C563.006 570.539 564.243 576 564.243 582.4L564.243 624L549.779 624L549.779 584.576C549.779 578.261 548.201 573.419 545.043 570.048C541.886 566.677 537.577 564.992 532.115 564.992C526.654 564.992 522.323 566.677 519.123 570.048C515.923 573.419 514.323 578.261 514.323 584.576L514.323 624L499.731 624L499.731 553.472L514.323 553.472L514.323 561.536C516.713 558.635 519.763 556.373 523.475 554.752C527.187 553.131 531.134 552.32 535.315 552.32Z"/>
<path d="M597.395 529.28L597.395 624L582.803 624L582.803 529.28L597.395 529.28Z"/>
<path d="M681.235 587.008C681.235 589.653 681.065 592.043 680.723 594.176L626.835 594.176C627.262 599.808 629.353 604.331 633.107 607.744C636.862 611.157 641.47 612.864 646.931 612.864C654.782 612.864 660.329 609.579 663.571 603.008L679.315 603.008C677.182 609.493 673.321 614.805 667.731 618.944C662.142 623.083 655.209 625.152 646.931 625.152C640.19 625.152 634.153 623.637 628.819 620.608C623.486 617.579 619.305 613.312 616.275 607.808C613.246 602.304 611.731 595.925 611.731 588.672C611.731 581.419 613.203 575.04 616.147 569.536C619.091 564.032 623.23 559.787 628.563 556.8C633.897 553.813 640.019 552.32 646.931 552.32C653.587 552.32 659.518 553.771 664.723 556.672C669.929 559.573 673.982 563.648 676.883 568.896C679.785 574.144 681.235 580.181 681.235 587.008ZM666.003 582.4C665.918 577.024 663.998 572.715 660.243 569.472C656.489 566.229 651.838 564.608 646.291 564.608C641.257 564.608 636.947 566.208 633.363 569.408C629.779 572.608 627.646 576.939 626.963 582.4L666.003 582.4Z"/>
<path d="M759.059 553.472L715.795 657.152L700.691 657.152L715.027 622.848L687.251 553.472L703.507 553.472L723.347 607.232L743.955 553.472L759.059 553.472Z"/>
<path d="M834.707 587.008C834.707 589.653 834.537 592.043 834.195 594.176L780.307 594.176C780.734 599.808 782.825 604.331 786.579 607.744C790.334 611.157 794.942 612.864 800.403 612.864C808.254 612.864 813.801 609.579 817.043 603.008L832.787 603.008C830.654 609.493 826.793 614.805 821.203 618.944C815.614 623.083 808.681 625.152 800.403 625.152C793.662 625.152 787.625 623.637 782.291 620.608C776.958 617.579 772.777 613.312 769.747 607.808C766.718 602.304 765.203 595.925 765.203 588.672C765.203 581.419 766.675 575.04 769.619 569.536C772.563 564.032 776.702 559.787 782.035 556.8C787.369 553.813 793.491 552.32 800.403 552.32C807.059 552.32 812.99 553.771 818.195 556.672C823.401 559.573 827.454 563.648 830.355 568.896C833.257 574.144 834.707 580.181 834.707 587.008ZM819.475 582.4C819.39 577.024 817.47 572.715 813.715 569.472C809.961 566.229 805.31 564.608 799.763 564.608C794.729 564.608 790.419 566.208 786.835 569.408C783.251 572.608 781.118 576.939 780.435 582.4L819.475 582.4Z"/>
<path d="M863.635 563.968C866.11 560.555 869.502 557.76 873.811 555.584C878.121 553.408 882.921 552.32 888.211 552.32C894.441 552.32 900.073 553.813 905.107 556.8C910.142 559.787 914.11 564.032 917.011 569.536C919.913 575.04 921.363 581.333 921.363 588.416C921.363 595.499 919.913 601.835 917.011 607.424C914.11 613.013 910.121 617.365 905.043 620.48C899.966 623.595 894.355 625.152 888.211 625.152C882.75 625.152 877.907 624.085 873.683 621.952C869.459 619.819 866.11 617.088 863.635 613.76L863.635 624L849.043 624L849.043 529.28L863.635 529.28L863.635 563.968ZM906.515 588.416C906.515 583.552 905.513 579.349 903.507 575.808C901.502 572.267 898.857 569.579 895.571 567.744C892.286 565.909 888.766 564.992 885.011 564.992C881.342 564.992 877.865 565.931 874.579 567.808C871.294 569.685 868.649 572.416 866.643 576C864.638 579.584 863.635 583.808 863.635 588.672C863.635 593.536 864.638 597.781 866.643 601.408C868.649 605.035 871.294 607.787 874.579 609.664C877.865 611.541 881.342 612.48 885.011 612.48C888.766 612.48 892.286 611.52 895.571 609.6C898.857 607.68 901.502 604.885 903.507 601.216C905.513 597.547 906.515 593.28 906.515 588.416Z"/>
<path d="M943.251 544.128C940.606 544.128 938.387 543.232 936.595 541.44C934.803 539.648 933.907 537.429 933.907 534.784C933.907 532.139 934.803 529.92 936.595 528.128C938.387 526.336 940.606 525.44 943.251 525.44C945.811 525.44 947.987 526.336 949.779 528.128C951.571 529.92 952.467 532.139 952.467 534.784C952.467 537.429 951.571 539.648 949.779 541.44C947.987 543.232 945.811 544.128 943.251 544.128ZM950.419 553.472L950.419 624L935.827 624L935.827 553.472L950.419 553.472Z"/>
<path d="M984.211 529.28L984.211 624L969.619 624L969.619 529.28L984.211 529.28Z"/>
<path d="M1010.84 544.128C1008.19 544.128 1005.97 543.232 1004.18 541.44C1002.39 539.648 1001.49 537.429 1001.49 534.784C1001.49 532.139 1002.39 529.92 1004.18 528.128C1005.97 526.336 1008.19 525.44 1010.84 525.44C1013.4 525.44 1015.57 526.336 1017.36 528.128C1019.16 529.92 1020.05 532.139 1020.05 534.784C1020.05 537.429 1019.16 539.648 1017.36 541.44C1015.57 543.232 1013.4 544.128 1010.84 544.128ZM1018 553.472L1018 624L1003.41 624L1003.41 553.472L1018 553.472Z"/>
<path d="M1051.8 563.712C1053.93 560.128 1056.77 557.333 1060.31 555.328C1063.85 553.323 1068.05 552.32 1072.92 552.32L1072.92 567.424L1069.2 567.424C1063.49 567.424 1059.16 568.875 1056.21 571.776C1053.27 574.677 1051.8 579.712 1051.8 586.88L1051.8 624L1037.2 624L1037.2 553.472L1051.8 553.472L1051.8 563.712Z"/>
<path d="M1111.96 625.152C1106.41 625.152 1101.44 624.149 1097.04 622.144C1092.65 620.139 1089.17 617.408 1086.61 613.952C1084.05 610.496 1082.69 606.635 1082.52 602.368L1097.62 602.368C1097.88 605.355 1099.3 607.851 1101.91 609.856C1104.51 611.861 1107.77 612.864 1111.7 612.864C1115.8 612.864 1118.97 612.075 1121.24 610.496C1123.5 608.917 1124.63 606.891 1124.63 604.416C1124.63 601.771 1123.37 599.808 1120.85 598.528C1118.33 597.248 1114.34 595.84 1108.88 594.304C1103.59 592.853 1099.28 591.445 1095.96 590.08C1092.63 588.715 1089.75 586.624 1087.32 583.808C1084.88 580.992 1083.67 577.28 1083.67 572.672C1083.67 568.917 1084.78 565.483 1087 562.368C1089.21 559.253 1092.39 556.8 1096.53 555.008C1100.67 553.216 1105.43 552.32 1110.8 552.32C1118.82 552.32 1125.29 554.347 1130.2 558.4C1135.1 562.453 1137.73 567.979 1138.07 574.976L1123.48 574.976C1123.22 571.819 1121.94 569.301 1119.64 567.424C1117.33 565.547 1114.22 564.608 1110.29 564.608C1106.45 564.608 1103.51 565.333 1101.46 566.784C1099.41 568.235 1098.39 570.155 1098.39 572.544C1098.39 574.421 1099.07 576 1100.44 577.28C1101.8 578.56 1103.46 579.563 1105.43 580.288C1107.39 581.013 1110.29 581.931 1114.13 583.04C1119.25 584.405 1123.45 585.792 1126.74 587.2C1130.02 588.608 1132.86 590.677 1135.25 593.408C1137.64 596.139 1138.88 599.765 1138.96 604.288C1138.96 608.299 1137.85 611.883 1135.64 615.04C1133.42 618.197 1130.28 620.672 1126.23 622.464C1122.17 624.256 1117.42 625.152 1111.96 625.152Z"/>
<path d="M1162.13 544.128C1159.49 544.128 1157.27 543.232 1155.48 541.44C1153.68 539.648 1152.79 537.429 1152.79 534.784C1152.79 532.139 1153.68 529.92 1155.48 528.128C1157.27 526.336 1159.49 525.44 1162.13 525.44C1164.69 525.44 1166.87 526.336 1168.66 528.128C1170.45 529.92 1171.35 532.139 1171.35 534.784C1171.35 537.429 1170.45 539.648 1168.66 541.44C1166.87 543.232 1164.69 544.128 1162.13 544.128ZM1169.3 553.472L1169.3 624L1154.71 624L1154.71 553.472L1169.3 553.472Z"/>
<path d="M1224.08 552.32C1229.63 552.32 1234.6 553.472 1239 555.776C1243.39 558.08 1246.82 561.493 1249.3 566.016C1251.77 570.539 1253.01 576 1253.01 582.4L1253.01 624L1238.55 624L1238.55 584.576C1238.55 578.261 1236.97 573.419 1233.81 570.048C1230.65 566.677 1226.34 564.992 1220.88 564.992C1215.42 564.992 1211.09 566.677 1207.89 570.048C1204.69 573.419 1203.09 578.261 1203.09 584.576L1203.09 624L1188.5 624L1188.5 553.472L1203.09 553.472L1203.09 561.536C1205.48 558.635 1208.53 556.373 1212.24 554.752C1215.96 553.131 1219.9 552.32 1224.08 552.32Z"/>
<path d="M1279 544.128C1276.35 544.128 1274.13 543.232 1272.34 541.44C1270.55 539.648 1269.65 537.429 1269.65 534.784C1269.65 532.139 1270.55 529.92 1272.34 528.128C1274.13 526.336 1276.35 525.44 1279 525.44C1281.56 525.44 1283.73 526.336 1285.52 528.128C1287.32 529.92 1288.21 532.139 1288.21 534.784C1288.21 537.429 1287.32 539.648 1285.52 541.44C1283.73 543.232 1281.56 544.128 1279 544.128ZM1286.16 553.472L1286.16 624L1271.57 624L1271.57 553.472L1286.16 553.472Z"/>
<path d="M1318.29 612.096L1350.29 612.096L1350.29 624L1301.4 624L1301.4 612.096L1333.52 565.376L1301.4 565.376L1301.4 553.472L1350.29 553.472L1350.29 565.376L1318.29 612.096Z"/>
</g>
<g fill="#fdfcef" opacity="1" stroke="none">
<path d="M679.117 773.301C676.608 771.667 675.135 770.034 674.697 768.4C674.26 766.767 674.829 765.454 676.404 764.462C676.754 764.229 677.439 764.2 678.46 764.375C679.481 764.55 680.254 764.9 680.779 765.425C681.946 766.475 683.273 767.131 684.761 767.394C686.248 767.656 688.071 767.496 690.23 766.912C692.68 766.154 694.562 765.206 695.874 764.069C697.187 762.931 698.66 761.37 700.293 759.387C701.518 757.812 702.379 756.266 702.875 754.749C703.371 753.232 703.604 751.847 703.575 750.592C703.546 749.338 703.239 748.39 702.656 747.748C701.198 745.707 699.389 744.292 697.231 743.504C695.072 742.717 692.243 742.79 688.742 743.723C688.334 743.781 687.721 743.898 686.905 744.073C686.088 744.248 685.359 744.409 684.717 744.554C684.075 744.7 683.725 744.773 683.667 744.773C683.259 744.89 682.938 744.948 682.704 744.948C682.471 744.948 682.194 745.225 681.873 745.779C681.552 746.334 681.071 747.471 680.429 749.192C679.787 750.913 678.825 753.553 677.541 757.112C676.316 760.67 675.281 763.193 674.435 764.681C673.589 766.169 672.845 766.84 672.203 766.694C671.562 766.548 670.833 765.921 670.016 764.812C669.549 763.996 669.039 763.091 668.484 762.1C667.93 761.108 667.945 760.087 668.528 759.037C668.82 758.512 669.053 758.031 669.228 757.593C669.403 757.155 669.637 756.382 669.928 755.274C670.22 754.399 670.789 752.868 671.635 750.68C672.481 748.492 673.487 745.925 674.654 742.979C675.82 740.033 677.046 736.985 678.329 733.835C679.612 730.684 680.852 727.709 682.048 724.909C683.244 722.109 684.25 719.746 685.067 717.821C685.884 716.012 686.38 714.7 686.555 713.883C686.73 713.066 686.671 712.629 686.38 712.57C686.38 712.279 686.292 712.002 686.117 711.739C685.942 711.477 685.884 711.229 685.942 710.995C685.942 710.762 686.453 710.441 687.474 710.033C688.494 709.624 689.588 709.245 690.755 708.895C691.922 708.545 692.768 708.428 693.293 708.545C693.584 708.545 693.934 708.531 694.343 708.501C694.751 708.472 694.955 708.341 694.955 708.108C695.13 708.108 695.685 708.049 696.618 707.933C697.551 707.816 698.572 707.816 699.681 707.933C703.589 708.283 706.798 709.406 709.307 711.302C711.815 713.198 713.04 716.217 712.982 720.359C712.924 721.35 712.515 722.634 711.757 724.209C710.998 725.784 710.05 727.359 708.913 728.934C707.775 730.509 706.565 731.88 705.281 733.047C704.523 733.689 703.721 734.345 702.875 735.016C702.029 735.687 701.3 736.241 700.687 736.679C700.075 737.116 699.768 737.335 699.768 737.335C699.768 737.335 700.002 737.423 700.468 737.598C700.935 737.773 701.431 737.948 701.956 738.123C704.64 739.114 706.754 740.369 708.3 741.885C709.846 743.402 710.94 745.502 711.582 748.186C711.815 749.061 711.83 750.14 711.626 751.424C711.421 752.707 711.144 753.976 710.794 755.23C710.444 756.485 710.065 757.549 709.657 758.424C709.248 758.833 708.927 759.256 708.694 759.693C708.461 760.131 708.344 760.349 708.344 760.349C708.344 760.466 708.111 760.918 707.644 761.706C707.177 762.493 706.623 763.354 705.981 764.287C705.34 765.221 704.727 766.037 704.144 766.737C703.56 767.204 702.729 767.86 701.65 768.706C700.57 769.552 699.404 770.384 698.149 771.2C696.895 772.017 695.714 772.63 694.605 773.038C692.972 773.738 691.149 774.219 689.136 774.482C687.123 774.744 685.213 774.774 683.404 774.569C681.596 774.365 680.167 773.942 679.117 773.301ZM685.417 736.985C685.417 736.985 685.898 736.883 686.861 736.679C687.824 736.475 688.888 736.241 690.055 735.979C691.222 735.716 692.097 735.468 692.68 735.235C692.972 735.06 693.395 734.826 693.949 734.535C694.503 734.243 695.072 733.806 695.655 733.222C696.472 732.464 697.347 731.603 698.281 730.641C699.214 729.678 700.133 728.643 701.037 727.534C701.941 726.426 702.714 725.23 703.356 723.946C704.698 721.846 705.427 720.329 705.544 719.396C705.66 718.463 705.34 717.617 704.581 716.858C704.056 716.217 703.327 715.735 702.394 715.414C701.46 715.094 700.454 714.919 699.375 714.889C698.295 714.86 697.26 714.991 696.268 715.283C695.51 715.517 694.926 715.794 694.518 716.115C694.109 716.435 693.905 716.917 693.905 717.558C693.905 718.083 693.745 718.623 693.424 719.177C693.103 719.731 692.797 720.154 692.505 720.446C692.447 720.854 692.257 721.248 691.936 721.627C691.616 722.007 691.455 722.196 691.455 722.196C691.455 722.43 691.09 723.144 690.361 724.34C689.632 725.536 688.859 727.243 688.042 729.459C686.992 731.968 686.292 733.776 685.942 734.885C685.592 735.993 685.417 736.693 685.417 736.985Z"/>
<path d="M736.521 766.825C735.938 766.242 735.471 765.439 735.121 764.419C734.771 763.398 734.421 762.216 734.071 760.874C733.954 760.408 733.911 759.883 733.94 759.299C733.969 758.716 733.954 758.249 733.896 757.899C733.721 758.308 733.444 758.833 733.065 759.474C732.686 760.116 732.321 760.583 731.971 760.874C731.738 761.108 731.213 761.56 730.396 762.231C729.579 762.902 728.762 763.441 727.946 763.85C726.02 765.075 724.314 765.644 722.826 765.556C721.339 765.469 720.041 764.725 718.932 763.325C717.999 762.566 717.241 761.604 716.657 760.437C716.074 759.27 715.957 757.87 716.307 756.237C716.424 754.195 716.716 752.197 717.182 750.242C717.649 748.288 718.612 745.677 720.07 742.41C721.295 740.019 722.229 738.152 722.87 736.81C723.512 735.468 723.92 734.681 724.095 734.447C724.97 734.156 726.05 734.17 727.333 734.491C728.617 734.812 729.317 735.381 729.433 736.197C729.783 736.781 729.783 737.875 729.433 739.479C729.083 741.083 728.383 742.906 727.333 744.948C726.516 746.932 725.743 748.857 725.014 750.724C724.285 752.59 723.847 754.166 723.702 755.449C723.556 756.732 723.891 757.52 724.708 757.812C725.233 758.103 726.006 758.074 727.027 757.724C728.048 757.374 729.258 756.324 730.658 754.574C732.058 752.824 733.546 750.053 735.121 746.261C735.588 745.094 735.938 744.059 736.171 743.154C736.405 742.25 736.551 741.244 736.609 740.135C736.492 739.435 736.682 738.706 737.178 737.948C737.674 737.189 738.272 736.606 738.972 736.197C739.205 735.906 739.526 735.629 739.934 735.366C740.343 735.104 740.605 735.118 740.722 735.41L742.122 735.322C742.355 735.264 742.618 735.497 742.909 736.022C743.201 736.547 743.493 736.927 743.784 737.16C744.426 737.685 744.718 738.823 744.66 740.573C744.601 742.323 743.901 744.773 742.559 747.923C741.451 750.315 740.707 752.124 740.328 753.349C739.949 754.574 739.73 755.77 739.672 756.937C739.672 757.987 739.759 758.876 739.934 759.606C740.109 760.335 740.634 761.079 741.509 761.837C742.151 762.245 742.516 762.931 742.603 763.893C742.691 764.856 742.705 765.687 742.647 766.387C742.53 766.912 742.078 767.277 741.291 767.481C740.503 767.685 739.657 767.729 738.753 767.613C737.849 767.496 737.105 767.233 736.521 766.825Z"/>
<path d="M749.91 764.637C749.385 764.229 748.816 763.704 748.204 763.062C747.591 762.42 747.372 761.516 747.547 760.349C747.722 758.716 747.956 757.272 748.247 756.018C748.539 754.764 748.889 753.32 749.297 751.686C749.414 750.986 749.72 749.79 750.216 748.098C750.712 746.407 751.31 744.569 752.01 742.585C752.71 740.602 753.439 738.721 754.198 736.941C754.956 735.162 755.627 733.835 756.211 732.96C756.852 732.376 757.8 732.085 759.054 732.085C760.309 732.085 761.169 732.318 761.636 732.785C762.278 733.31 762.482 734.229 762.249 735.541C762.015 736.854 761.198 738.881 759.798 741.623C759.507 742.323 759.142 743.067 758.704 743.854C758.267 744.642 757.961 745.284 757.786 745.779C757.611 746.275 757.669 746.494 757.961 746.436C758.311 745.794 758.952 745.05 759.886 744.204C760.819 743.358 761.811 742.527 762.861 741.71C763.911 740.894 764.903 740.164 765.836 739.523C766.77 738.881 767.411 738.473 767.761 738.298C768.228 738.006 768.768 737.758 769.38 737.554C769.993 737.35 770.416 737.189 770.649 737.073C771.991 736.431 773.464 736.183 775.068 736.329C776.673 736.475 777.65 736.985 778 737.86C778.058 738.327 778.248 738.677 778.569 738.91C778.889 739.144 779.05 739.26 779.05 739.26C779.283 739.26 779.415 739.348 779.444 739.523C779.473 739.698 779.487 739.785 779.487 739.785C779.487 740.194 779.094 740.777 778.306 741.535C777.519 742.294 776.658 742.702 775.725 742.76C774.966 742.819 774.295 742.965 773.712 743.198C773.129 743.431 772.429 743.723 771.612 744.073C769.395 745.357 767.397 746.494 765.618 747.486C763.838 748.478 762.015 749.994 760.148 752.036C759.74 752.503 759.302 752.94 758.836 753.349C758.369 753.757 757.902 754.341 757.436 755.099C757.144 755.391 756.852 756.032 756.561 757.024C756.269 758.016 756.021 758.964 755.817 759.868C755.613 760.772 755.51 761.312 755.51 761.487C755.51 761.487 755.423 761.764 755.248 762.318C755.073 762.873 754.781 763.412 754.373 763.937C753.673 764.871 752.987 765.454 752.316 765.687C751.646 765.921 750.843 765.571 749.91 764.637Z"/>
<path d="M787.538 765.775C787.071 765.892 786.459 765.935 785.7 765.906C784.942 765.877 784.286 765.789 783.732 765.644C783.177 765.498 782.9 765.337 782.9 765.162C782.9 764.871 782.754 764.725 782.463 764.725C782.463 764.725 782.142 764.477 781.5 763.981C780.858 763.485 780.275 763.121 779.75 762.887C779.225 762.07 778.889 761.122 778.744 760.043C778.598 758.964 778.933 757.053 779.75 754.311C779.808 752.445 780.333 750.476 781.325 748.405C782.317 746.334 783.571 744.306 785.088 742.323C786.605 740.339 788.18 738.575 789.813 737.029C791.447 735.483 792.905 734.331 794.189 733.572C795.005 732.755 796.099 732.318 797.47 732.26C798.841 732.201 800.052 732.464 801.102 733.047C801.685 733.339 802.327 733.922 803.027 734.797C803.727 735.672 804.398 736.591 805.04 737.554C805.681 738.516 806.177 739.377 806.527 740.135C806.702 740.777 806.863 741.346 807.008 741.842C807.154 742.338 807.256 742.935 807.315 743.636C807.373 744.336 807.315 745.386 807.14 746.786C806.848 747.836 806.6 748.901 806.396 749.98C806.192 751.059 806.09 752.153 806.09 753.261C805.973 754.37 806.104 755.157 806.483 755.624C806.863 756.091 807.431 756.12 808.19 755.712C808.89 755.362 809.619 755.318 810.378 755.58C811.136 755.843 811.676 756.31 811.996 756.98C812.317 757.651 812.215 758.512 811.69 759.562C811.34 760.32 810.786 761.05 810.027 761.75C809.269 762.45 808.423 763.018 807.49 763.456C806.556 763.893 805.652 764.112 804.777 764.112C804.135 764.112 803.494 763.864 802.852 763.368C802.21 762.873 801.627 762.187 801.102 761.312C800.577 760.437 800.139 759.474 799.789 758.424L799.264 756.412L796.114 759.299C795.355 760.116 794.612 760.86 793.882 761.531C793.153 762.202 792.701 762.683 792.526 762.975C792.234 763.5 791.666 763.966 790.82 764.375C789.974 764.783 788.88 765.25 787.538 765.775ZM789.901 757.374C790.893 756.791 791.753 756.091 792.482 755.274C793.212 754.457 793.926 753.538 794.626 752.518C795.326 751.497 796.085 750.403 796.901 749.236C797.893 747.894 798.608 746.815 799.045 745.998C799.483 745.182 799.818 744.306 800.052 743.373C799.818 742.731 799.497 742.046 799.089 741.317C798.681 740.587 798.272 740.194 797.864 740.135C797.047 740.135 796.07 740.631 794.932 741.623C793.795 742.615 792.555 744.044 791.213 745.911C790.98 746.202 790.688 746.669 790.338 747.311C789.988 747.953 789.653 748.551 789.332 749.105C789.011 749.659 788.792 750.024 788.676 750.199C788.501 750.432 788.253 750.972 787.932 751.817C787.611 752.663 787.334 753.509 787.101 754.355C786.867 755.201 786.751 755.799 786.751 756.149C786.751 756.499 786.794 756.878 786.882 757.287C786.969 757.695 787.246 757.958 787.713 758.074C788.18 758.191 788.909 757.958 789.901 757.374Z"/>
<path d="M812.828 789.489C811.544 789.723 810.669 789.752 810.203 789.577C809.736 789.402 809.094 789.11 808.277 788.702C807.636 788.235 807.169 787.885 806.877 787.652C806.586 787.418 806.381 787.185 806.265 786.952C805.681 785.727 805.594 784.822 806.002 784.239C806.411 783.656 807.008 783.291 807.796 783.145C808.584 782.999 809.269 782.926 809.852 782.926C810.261 783.16 810.946 783.276 811.909 783.276C812.871 783.276 813.469 783.16 813.703 782.926C813.703 782.926 813.98 782.766 814.534 782.445C815.088 782.124 815.832 781.876 816.766 781.701C818.574 780.826 820.003 779.936 821.053 779.032C822.103 778.128 823.27 776.597 824.554 774.438C825.079 773.621 825.633 772.673 826.216 771.594C826.8 770.515 827.208 769.45 827.441 768.4C827.908 767.233 828.448 765.658 829.06 763.675C829.673 761.691 830.213 759.722 830.679 757.768C831.146 755.814 831.408 754.341 831.467 753.349C831.817 750.082 832.488 746.917 833.479 743.854C834.471 740.792 835.259 737.539 835.842 734.097C836.192 733.281 836.455 732.799 836.63 732.653C836.805 732.508 837.184 732.435 837.767 732.435C838.409 732.435 839.167 732.624 840.042 733.003C840.918 733.383 841.559 733.893 841.968 734.535C842.551 735.643 842.828 736.941 842.799 738.429C842.77 739.916 842.376 741.215 841.618 742.323C841.034 743.14 840.524 744.409 840.086 746.13C839.649 747.85 839.226 749.994 838.817 752.561C838.526 753.845 838.219 755.347 837.899 757.068C837.578 758.789 837.242 760.699 836.892 762.8C836.659 763.383 836.338 764.273 835.93 765.469C835.521 766.665 835.259 767.613 835.142 768.313C835.084 768.546 834.909 769.013 834.617 769.713C834.325 770.413 834.034 771.098 833.742 771.769C833.45 772.44 833.246 772.892 833.129 773.126C830.329 778.784 827.106 782.868 823.46 785.377C819.814 787.885 816.27 789.256 812.828 789.489ZM820.178 764.725C819.537 764.725 818.88 764.375 818.209 763.675C817.539 762.975 817.086 762.42 816.853 762.012C816.62 761.429 816.182 760.874 815.54 760.349C814.899 759.824 814.345 759.183 813.878 758.424C813.411 757.666 813.294 756.732 813.528 755.624C813.761 754.866 814.111 753.713 814.578 752.168C815.045 750.622 815.599 748.901 816.241 747.005C816.882 745.109 817.539 743.227 818.209 741.36C818.88 739.494 819.507 737.831 820.091 736.372C820.674 734.914 821.17 733.893 821.578 733.31C821.928 732.843 822.483 732.493 823.241 732.26C823.999 732.026 824.758 731.968 825.516 732.085C826.275 732.201 826.829 732.551 827.179 733.135C827.821 733.951 828.185 734.754 828.273 735.541C828.36 736.329 827.937 737.568 827.004 739.26C826.771 739.902 826.479 740.587 826.129 741.317C825.779 742.046 825.604 742.527 825.604 742.76C825.545 742.877 825.443 743.271 825.298 743.942C825.152 744.613 824.991 745.24 824.816 745.823C824.641 746.407 824.466 746.698 824.291 746.698C824.058 746.932 823.81 747.544 823.547 748.536C823.285 749.528 823.051 750.622 822.847 751.817C822.643 753.013 822.512 754.064 822.454 754.968C822.395 755.872 822.483 756.324 822.716 756.324C824.525 756.324 826.275 755.755 827.966 754.618C829.658 753.48 831.496 751.57 833.479 748.886L834.267 757.112C833.45 757.52 832.692 757.943 831.992 758.381C831.292 758.818 830.65 759.329 830.067 759.912C829.892 760.145 829.483 760.466 828.842 760.874C828.2 761.283 827.573 761.647 826.96 761.968C826.348 762.289 825.954 762.45 825.779 762.45C825.779 762.45 825.706 762.464 825.56 762.493C825.414 762.523 825.341 762.654 825.341 762.887C825.341 763.004 824.962 763.223 824.204 763.543C823.445 763.864 822.658 764.141 821.841 764.375C821.024 764.608 820.47 764.725 820.178 764.725Z"/>
<path d="M850.631 765.425C849.931 765.6 849.143 765.396 848.268 764.812C847.393 764.229 846.606 763.5 845.905 762.625C845.205 761.75 844.768 760.962 844.593 760.262C844.36 759.037 844.432 757.535 844.812 755.755C845.191 753.976 845.847 752.08 846.781 750.067C847.714 748.055 848.881 746.071 850.281 744.117C851.681 742.163 853.256 740.398 855.006 738.823C856.756 737.248 858.652 736.022 860.694 735.147C861.569 734.681 862.182 734.374 862.532 734.229C862.882 734.083 863.232 734.083 863.582 734.229C863.932 734.374 864.545 734.681 865.42 735.147C866.236 735.381 867.068 735.658 867.914 735.979C868.759 736.3 869.503 736.897 870.145 737.773C870.612 738.648 870.962 739.523 871.195 740.398C871.428 741.273 871.633 742.265 871.808 743.373C872.274 744.831 872.449 745.779 872.333 746.217C872.216 746.655 872.041 746.99 871.808 747.223C871.341 747.807 871.224 748.098 871.458 748.098C871.458 748.098 871.443 748.201 871.414 748.405C871.385 748.609 871.253 748.915 871.02 749.324C870.612 750.607 870.305 751.817 870.101 752.955C869.897 754.093 869.912 755.099 870.145 755.974C870.612 757.258 871.239 758.016 872.026 758.249C872.814 758.483 873.849 757.958 875.133 756.674C875.775 756.207 876.504 755.901 877.321 755.755C878.137 755.609 878.546 755.77 878.546 756.237C878.546 756.237 878.633 756.31 878.808 756.455C878.983 756.601 879.187 756.674 879.421 756.674C879.712 756.674 879.829 756.951 879.771 757.505C879.712 758.06 879.596 758.687 879.421 759.387C879.246 760.087 879.012 760.67 878.721 761.137C877.846 762.012 877.408 762.595 877.408 762.887C877.408 762.887 877.306 762.989 877.102 763.193C876.898 763.398 876.562 763.704 876.096 764.112C875.045 764.754 873.718 765.075 872.114 765.075C870.51 765.075 869.27 764.754 868.395 764.112C867.52 763.471 866.659 762.683 865.813 761.75C864.967 760.816 864.428 759.941 864.195 759.124L863.757 758.249L861.219 759.912C860.578 760.554 860.111 761.035 859.819 761.356C859.527 761.677 859.265 761.954 859.032 762.187C858.857 762.42 858.667 762.625 858.463 762.8C858.259 762.975 858.04 763.062 857.806 763.062C857.573 763.062 857.369 763.062 857.194 763.062C857.019 763.062 856.931 763.062 856.931 763.062C856.931 763.296 856.523 763.602 855.706 763.981C854.89 764.36 853.985 764.696 852.994 764.987C852.002 765.279 851.214 765.425 850.631 765.425ZM852.469 758.074C852.819 758.074 853.358 757.855 854.087 757.418C854.817 756.98 855.619 756.441 856.494 755.799C857.369 755.157 858.171 754.516 858.9 753.874C859.63 753.232 860.169 752.707 860.519 752.299C860.753 752.065 861.03 751.686 861.351 751.161C861.671 750.636 862.036 750.169 862.444 749.761C863.786 748.244 864.632 747.034 864.982 746.13C865.332 745.225 865.186 744.248 864.545 743.198C864.311 742.556 864.019 742.206 863.669 742.148C863.319 742.09 862.59 742.294 861.482 742.76C860.782 743.169 860.023 743.84 859.207 744.773C858.39 745.707 857.559 746.757 856.713 747.923C855.867 749.09 855.094 750.286 854.394 751.511C853.694 752.736 853.125 753.845 852.687 754.836C852.25 755.828 852.031 756.616 852.031 757.199C852.031 757.433 852.104 757.637 852.25 757.812C852.396 757.987 852.469 758.074 852.469 758.074Z"/>
<path d="M908.036 762.537C908.036 762.07 907.977 761.633 907.861 761.225C907.744 760.816 907.802 760.495 908.036 760.262L908.736 760.437C908.502 760.495 908.05 760.51 907.379 760.481C906.708 760.452 906.096 760.364 905.542 760.218C904.987 760.072 904.681 759.941 904.623 759.824C904.681 758.833 904.754 758.074 904.842 757.549C904.929 757.024 905.06 756.587 905.235 756.237C905.235 755.712 905.41 755.041 905.76 754.224C906.111 753.407 906.402 752.561 906.636 751.686C906.869 750.694 907.175 749.207 907.554 747.223C907.934 745.24 908.502 743.344 909.261 741.535C909.727 740.019 910.311 738.108 911.011 735.804C911.711 733.499 912.382 731.589 913.024 730.072C913.724 727.388 914.38 725.215 914.992 723.553C915.605 721.89 916.247 720.373 916.918 719.002C917.589 717.631 918.332 716.071 919.149 714.321C919.382 713.854 919.616 713.256 919.849 712.527C920.083 711.797 920.287 711.17 920.462 710.645C920.987 709.712 921.731 709.129 922.693 708.895C923.656 708.662 924.487 708.895 925.187 709.595C925.829 710.237 926.325 710.806 926.675 711.302C927.025 711.797 927.127 712.585 926.981 713.664C926.835 714.744 926.266 716.508 925.275 718.958C924.866 719.542 924.414 720.519 923.918 721.89C923.422 723.261 922.97 724.471 922.562 725.522C921.687 727.563 920.987 729.314 920.462 730.772C919.937 732.23 919.441 733.718 918.974 735.235C918.566 736.868 918.041 738.458 917.399 740.004C916.757 741.55 916.145 743.227 915.561 745.036L914.161 745.473C914.57 744.948 915.08 744.336 915.693 743.636C916.305 742.935 916.888 742.294 917.443 741.71C917.997 741.127 918.362 740.748 918.537 740.573C920.112 739.231 921.862 738.064 923.787 737.073C925.712 736.081 927.535 735.366 929.256 734.929C930.977 734.491 932.275 734.447 933.15 734.797C934.2 735.147 935.221 735.891 936.213 737.029C937.205 738.166 937.876 739.581 938.226 741.273C938.692 742.206 938.649 743.431 938.094 744.948C937.54 746.465 936.709 748.244 935.6 750.286C934.609 752.095 933.471 753.83 932.188 755.493C930.904 757.155 929.679 758.541 928.512 759.649C928.104 759.883 927.594 760.277 926.981 760.831C926.368 761.385 925.829 761.925 925.362 762.45C924.137 763.558 922.635 764.36 920.855 764.856C919.076 765.352 917.282 765.585 915.474 765.556C913.665 765.527 912.076 765.25 910.705 764.725C909.334 764.2 908.444 763.471 908.036 762.537ZM910.661 758.862C910.953 758.92 911.244 758.964 911.536 758.993C911.828 759.022 912.149 759.037 912.499 759.037C913.782 758.862 914.817 758.789 915.605 758.818C916.393 758.847 917.18 758.774 917.968 758.599C918.755 758.424 919.674 758.016 920.724 757.374C922.241 756.207 923.51 754.953 924.531 753.611C925.552 752.27 926.616 750.899 927.725 749.499C928.717 748.215 929.504 746.917 930.088 745.604C930.671 744.292 930.963 743.14 930.963 742.148C930.963 741.623 930.817 741.36 930.525 741.36C930.408 741.36 929.883 741.521 928.95 741.842C928.016 742.163 927.069 742.542 926.106 742.979C925.143 743.417 924.516 743.781 924.225 744.073C924.225 744.306 924.049 744.496 923.699 744.642C923.349 744.788 923.174 744.861 923.174 744.861C921.366 746.202 920.039 747.238 919.193 747.967C918.347 748.696 917.574 749.499 916.874 750.374C916.466 750.957 916.145 751.38 915.911 751.642C915.678 751.905 915.474 752.138 915.299 752.343C915.124 752.547 914.861 752.911 914.511 753.436C914.161 753.961 913.636 754.778 912.936 755.887C912.528 756.645 912.119 757.374 911.711 758.074C911.303 758.774 910.953 759.183 910.661 759.299L910.661 758.862Z"/>
<path d="M944.264 765.162C944.03 764.696 943.52 764.229 942.732 763.762C941.945 763.296 941.551 762.945 941.551 762.712C941.551 762.479 941.42 762.114 941.157 761.618C940.895 761.122 940.647 760.758 940.413 760.524C940.122 760.174 940.209 759.314 940.676 757.943C941.143 756.572 941.843 754.895 942.776 752.911C943.709 750.928 944.73 748.915 945.839 746.873C946.306 746.407 946.772 745.794 947.239 745.036C947.706 744.277 948.056 743.781 948.289 743.548C948.289 743.315 948.377 743.096 948.552 742.892C948.727 742.688 948.931 742.585 949.164 742.585L949.864 741.185C949.981 740.952 950.345 740.485 950.958 739.785C951.571 739.085 952.314 738.312 953.189 737.466C954.065 736.62 954.954 735.818 955.858 735.06C956.763 734.301 957.506 733.747 958.09 733.397C959.315 732.58 960.584 732.201 961.896 732.26C963.209 732.318 964.332 732.726 965.265 733.485C965.44 733.66 965.834 734.01 966.447 734.535C967.059 735.06 967.759 735.643 968.547 736.285C969.335 736.927 970.02 737.51 970.603 738.035L973.841 740.923L972.354 745.298C971.595 747.632 971.406 749.674 971.785 751.424C972.164 753.174 972.704 754.691 973.404 755.974C973.695 756.616 974.089 757.112 974.585 757.462C975.081 757.812 975.737 758.045 976.554 758.162C977.021 758.22 977.458 758.395 977.866 758.687C978.275 758.978 978.479 759.445 978.479 760.087C978.479 761.487 978.231 762.493 977.735 763.106C977.239 763.718 976.7 764.083 976.116 764.2C974.191 764.433 972.354 764.229 970.603 763.587C968.853 762.945 967.278 761.283 965.878 758.599C965.645 758.249 965.338 757.593 964.959 756.63C964.58 755.668 964.361 755.041 964.303 754.749C964.07 755.041 963.763 755.405 963.384 755.843C963.005 756.28 962.64 756.674 962.29 757.024C958.148 761.225 954.604 763.952 951.658 765.206C948.712 766.46 946.247 766.446 944.264 765.162ZM949.077 757.899C949.485 757.958 950.127 757.739 951.002 757.243C951.877 756.747 953.044 755.916 954.502 754.749C956.486 753.057 958.119 751.657 959.402 750.549C960.686 749.44 961.94 748.011 963.165 746.261L965.09 743.111C964.507 741.769 963.982 740.894 963.515 740.485C963.049 740.077 962.582 739.873 962.115 739.873C961.357 739.873 960.453 740.354 959.402 741.317C958.352 742.279 957.171 743.679 955.858 745.517C954.546 747.355 953.073 749.644 951.439 752.386C950.681 753.67 950.098 754.909 949.689 756.105C949.281 757.301 949.077 757.899 949.077 757.899Z"/>
<path d="M985.83 767.525C983.846 766.708 982.402 765.848 981.498 764.944C980.594 764.039 980.229 763.237 980.404 762.537C980.521 762.187 980.725 761.866 981.017 761.575C981.308 761.283 981.965 761.152 982.986 761.181C984.007 761.21 985.596 761.487 987.755 762.012C988.397 762.012 989.038 761.983 989.68 761.925C990.322 761.866 990.92 761.779 991.474 761.662C992.028 761.545 992.48 761.4 992.83 761.225C993.122 761.108 993.209 760.947 993.093 760.743C992.976 760.539 992.772 760.32 992.48 760.087C992.247 759.795 991.984 759.606 991.693 759.518C991.401 759.431 991.138 759.387 990.905 759.387C990.788 759.095 990.54 758.803 990.161 758.512C989.782 758.22 989.33 757.899 988.805 757.549C987.521 756.499 986.355 755.566 985.305 754.749C984.255 753.932 983.846 753.32 984.08 752.911C984.08 752.678 984.08 752.547 984.08 752.518C984.08 752.488 984.08 752.474 984.08 752.474C983.671 752.474 983.292 751.905 982.942 750.767C982.592 749.63 982.417 748.594 982.417 747.661C982.417 746.494 982.665 745.327 983.161 744.161C983.657 742.994 984.298 741.885 985.086 740.835C985.873 739.785 986.676 738.852 987.492 738.035C988.601 736.985 989.782 735.949 991.036 734.929C992.291 733.908 993.662 732.989 995.149 732.172C996.637 731.355 998.285 730.714 1000.09 730.247C1000.91 730.072 1001.84 729.984 1002.89 729.984C1003.94 729.984 1004.7 730.13 1005.17 730.422C1005.64 730.13 1006.22 730.203 1006.92 730.641C1007.62 731.078 1008.32 731.676 1009.02 732.435C1009.72 733.193 1010.24 733.951 1010.59 734.71C1010.59 735.41 1010.58 736.27 1010.55 737.291C1010.52 738.312 1010.45 739.202 1010.33 739.96C1010.22 740.719 1009.95 741.098 1009.54 741.098C1009.54 741.098 1009.47 741.112 1009.33 741.142C1009.18 741.171 1009.11 741.331 1009.11 741.623C1009.11 742.206 1008.67 742.877 1007.79 743.636C1006.69 744.394 1005.64 745.006 1004.64 745.473C1003.65 745.94 1002.89 745.969 1002.37 745.561C1002.02 745.327 1001.7 745.094 1001.41 744.861C1001.11 744.627 1000.85 744.336 1000.62 743.986C1000.62 743.986 1000.55 743.854 1000.4 743.592C1000.25 743.329 1000.18 743.081 1000.18 742.848C1000.18 742.615 1000.27 742.396 1000.44 742.192C1000.62 741.987 1000.71 741.885 1000.71 741.885C1001.52 741.127 1002.15 740.427 1002.59 739.785C1003.02 739.144 1003.33 738.575 1003.51 738.079C1003.68 737.583 1003.77 737.189 1003.77 736.897C1003.77 736.547 1003.7 736.329 1003.55 736.241C1003.4 736.154 1003.1 736.11 1002.63 736.11C1002.34 736.11 1001.71 736.343 1000.75 736.81C999.787 737.277 998.781 737.845 997.731 738.516C996.681 739.187 995.864 739.785 995.28 740.31C995.047 740.719 994.887 740.981 994.799 741.098C994.712 741.215 994.551 741.273 994.318 741.273C994.318 741.04 994.172 741.069 993.88 741.36C993.589 741.652 993.239 742.06 992.83 742.585C992.422 743.111 992.014 743.665 991.605 744.248C991.197 744.831 990.876 745.298 990.643 745.648C990.584 746.173 990.453 746.655 990.249 747.092C990.045 747.53 989.972 747.982 990.03 748.448C990.088 749.032 990.38 749.586 990.905 750.111C991.43 750.636 992.189 751.307 993.18 752.124C995.222 753.641 996.753 754.836 997.774 755.712C998.795 756.587 999.51 757.287 999.918 757.812C1000.33 758.337 1000.59 758.862 1000.71 759.387C1001.7 761.195 1001.81 762.756 1001.06 764.069C1000.3 765.381 999.131 766.387 997.556 767.088C996.972 767.379 995.951 767.656 994.493 767.919C993.034 768.181 991.503 768.298 989.899 768.269C988.294 768.24 986.938 767.992 985.83 767.525Z"/>
<path d="M1011.82 765.512C1011.35 765.046 1011.02 764.346 1010.81 763.412C1010.61 762.479 1010.54 761.56 1010.59 760.656C1010.65 759.751 1010.8 759.066 1011.03 758.599C1011.03 758.133 1011.1 757.768 1011.25 757.505C1011.4 757.243 1011.44 756.995 1011.38 756.762C1011.32 756.528 1011.38 756.12 1011.56 755.537C1011.73 754.953 1011.91 754.399 1012.08 753.874C1012.49 752.94 1012.96 751.73 1013.48 750.242C1014.01 748.755 1014.53 747.238 1015.06 745.692C1015.58 744.146 1016.02 742.804 1016.37 741.667C1016.72 740.529 1016.92 739.844 1016.98 739.61C1016.98 738.91 1017.45 738.531 1018.38 738.473C1019.08 738.239 1019.93 738.531 1020.92 739.348C1021.91 740.164 1022.7 741.04 1023.28 741.973C1023.75 742.44 1023.92 743.052 1023.81 743.811C1023.69 744.569 1023.31 745.648 1022.67 747.048C1022.44 747.515 1022.16 748.288 1021.84 749.367C1021.52 750.447 1021.3 751.336 1021.18 752.036C1020.95 752.503 1020.67 753.159 1020.35 754.005C1020.03 754.851 1019.75 755.653 1019.52 756.412C1019.4 756.703 1019.29 757.243 1019.17 758.031C1019.05 758.818 1018.91 759.62 1018.73 760.437C1018.56 761.254 1018.32 761.895 1018.03 762.362C1017.51 764.754 1016.59 766.154 1015.28 766.562C1013.96 766.971 1012.81 766.621 1011.82 765.512Z"/>
<path d="M1058.2 764.9C1056.91 764.783 1055.85 764.506 1055 764.069C1054.16 763.631 1053.47 762.741 1052.95 761.4C1052.71 760.466 1052.61 759.489 1052.64 758.468C1052.67 757.447 1052.74 756.455 1052.86 755.493C1052.98 754.53 1053.04 753.699 1053.04 752.999C1053.04 752.882 1053.04 752.649 1053.04 752.299C1053.04 751.949 1053.04 751.628 1053.04 751.336C1052.92 750.461 1052.7 749.921 1052.38 749.717C1052.06 749.513 1051.52 749.557 1050.76 749.849C1049.53 750.432 1048.21 751.205 1046.78 752.168C1045.35 753.13 1043.86 754.239 1042.32 755.493C1040.77 756.747 1039.18 758.074 1037.55 759.474C1036.26 760.874 1035.32 762.012 1034.7 762.887C1034.09 763.762 1033.46 764.2 1032.82 764.2C1032.35 764.433 1031.86 764.375 1031.33 764.025C1030.81 763.675 1030.25 763.266 1029.67 762.8C1029.26 762.333 1028.78 761.735 1028.23 761.006C1027.67 760.277 1027.34 759.795 1027.22 759.562C1027.22 758.628 1027.29 757.783 1027.44 757.024C1027.59 756.266 1027.82 755.478 1028.14 754.661C1028.46 753.845 1028.85 752.911 1029.32 751.861C1029.55 751.453 1029.77 751.03 1029.98 750.592C1030.18 750.155 1030.43 749.674 1030.72 749.149C1030.95 748.332 1031.29 747.398 1031.73 746.348C1032.16 745.298 1032.59 744.306 1033 743.373C1033.64 741.856 1034.13 740.544 1034.48 739.435C1034.83 738.327 1035.13 737.131 1035.36 735.847C1035.3 735.731 1035.33 735.556 1035.45 735.322C1035.56 735.089 1035.74 734.943 1035.97 734.885L1036.06 734.885L1036.15 734.885C1036.55 734.593 1037.33 734.549 1038.47 734.754C1039.6 734.958 1040.46 735.293 1041.05 735.76C1042.27 736.81 1042.86 738.181 1042.8 739.873C1042.74 741.565 1041.86 743.781 1040.17 746.523C1039.76 747.457 1039.34 748.317 1038.9 749.105C1038.47 749.892 1038.25 750.432 1038.25 750.724C1038.25 750.724 1038.48 750.549 1038.95 750.199C1039.41 749.849 1039.97 749.426 1040.61 748.93C1041.25 748.434 1041.81 748.04 1042.27 747.748C1042.56 747.457 1043.21 746.917 1044.2 746.13C1045.19 745.342 1046.27 744.511 1047.43 743.636C1048.6 742.76 1049.53 742.09 1050.24 741.623C1050.88 741.156 1051.69 740.675 1052.69 740.179C1053.68 739.683 1054.29 739.435 1054.52 739.435C1055.11 739.435 1055.82 739.639 1056.67 740.048C1057.51 740.456 1058.3 740.937 1059.03 741.492C1059.76 742.046 1060.18 742.556 1060.3 743.023C1060.3 743.256 1060.27 743.563 1060.21 743.942C1060.15 744.321 1060.12 744.656 1060.12 744.948C1060.07 745.882 1060.05 747.005 1060.08 748.317C1060.11 749.63 1060.12 750.942 1060.12 752.255C1060.12 753.568 1060.01 754.749 1059.77 755.799C1059.77 755.799 1059.8 755.843 1059.86 755.93C1059.92 756.018 1059.98 756.149 1060.04 756.324C1059.98 756.382 1059.96 756.485 1059.99 756.63C1060.02 756.776 1060.04 756.849 1060.04 756.849C1060.15 757.258 1060.28 757.666 1060.43 758.074C1060.58 758.483 1060.77 758.935 1061 759.431C1061.23 759.926 1061.49 760.554 1061.79 761.312C1061.73 762.07 1061.3 762.814 1060.52 763.543C1059.73 764.273 1058.96 764.725 1058.2 764.9Z"/>
</g>
</g>
<g opacity="1">
<path d="M2283.22 633.857C2271.06 633.857 2261.76 624.557 2261.76 612.395L2261.76 427.823C2261.76 258.989 2124.4 120.918 1955.57 120.918C1786.73 120.918 1649.38 258.989 1649.38 427.823L1649.38 612.395C1649.38 624.557 1640.08 633.857 1627.92 633.857C1615.75 633.857 1606.45 624.557 1606.45 612.395L1606.45 427.823C1606.45 234.666 1763.13 77.994 1955.57 77.994C2148.01 77.994 2304.68 234.666 2304.68 427.107L2304.68 611.68C2304.68 624.557 2295.38 633.857 2283.22 633.857Z" fill="#264653" fill-rule="nonzero" opacity="1" stroke="none"/>
<path d="M1758.83 472.177L1725.92 472.177C1635.79 472.177 1562.1 545.863 1562.1 636.003L1562.1 636.003C1562.1 726.858 1635.79 800.544 1725.92 800.544L1758.83 800.544C1776.72 800.544 1791.74 785.521 1791.74 767.636L1791.74 505.085C1791.74 487.201 1776.72 472.177 1758.83 472.177ZM2152.3 472.177L2185.21 472.177C2276.06 472.177 2349.03 545.863 2349.03 636.003L2349.03 636.003C2349.03 726.858 2275.35 799.829 2185.21 799.829L2152.3 799.829C2134.42 799.829 2119.39 784.805 2119.39 766.92L2119.39 505.085C2119.39 487.201 2134.42 472.177 2152.3 472.177Z" fill="#2a9d8f" fill-rule="nonzero" opacity="1" stroke="none"/>
<path d="M2185.21 800.544L2152.3 800.544C2134.42 800.544 2119.39 785.521 2119.39 767.636L2119.39 505.085C2119.39 487.201 2134.42 472.177 2152.3 472.177L2185.21 472.177L2185.21 800.544ZM1758.83 800.544L1725.92 800.544L1725.92 472.177L1758.83 472.177C1776.72 472.177 1791.74 487.201 1791.74 505.085L1791.74 767.636C1791.74 785.521 1776.72 800.544 1758.83 800.544Z" fill="#a5a4aa" fill-rule="nonzero" opacity="1" stroke="none"/>
<path d="M2185.21 800.544L2152.3 800.544C2134.42 800.544 2119.39 785.521 2119.39 767.636L2119.39 505.085C2119.39 487.201 2134.42 472.177 2152.3 472.177L2185.21 472.177L2185.21 800.544ZM1758.83 800.544L1725.92 800.544L1725.92 472.177L1758.83 472.177C1776.72 472.177 1791.74 487.201 1791.74 505.085L1791.74 767.636C1791.74 785.521 1776.72 800.544 1758.83 800.544Z" fill="#ebebea" fill-rule="nonzero" opacity="1" stroke="none"/>
<path d="M1758.83 822.006L1725.92 822.006C1623.62 822.006 1540.64 738.305 1540.64 636.003C1540.64 533.701 1623.62 450.715 1725.92 450.715L1758.83 450.715C1788.88 450.715 1813.2 475.039 1813.2 505.085L1813.2 767.636C1813.2 797.682 1788.88 822.006 1758.83 822.006ZM1725.92 493.639C1647.23 493.639 1583.56 558.025 1583.56 636.003C1583.56 713.981 1647.23 779.082 1725.92 779.082L1758.83 779.082C1765.27 779.082 1770.28 774.074 1770.28 767.636L1770.28 505.085C1770.28 498.647 1765.27 493.639 1758.83 493.639L1725.92 493.639ZM2185.21 822.006L2152.3 822.006C2122.25 822.006 2097.93 797.682 2097.93 767.636L2097.93 505.085C2097.93 475.039 2122.25 450.715 2152.3 450.715L2185.21 450.715C2287.51 450.715 2370.5 533.701 2370.5 636.003C2370.5 738.305 2287.51 822.006 2185.21 822.006ZM2152.3 493.639C2145.86 493.639 2140.85 498.647 2140.85 505.085L2140.85 767.636C2140.85 774.074 2145.86 779.082 2152.3 779.082L2185.21 779.082C2263.9 779.082 2327.57 715.412 2327.57 636.718C2327.57 558.025 2263.9 494.355 2185.21 494.355L2152.3 493.639L2152.3 493.639Z" fill="#264653" fill-rule="nonzero" opacity="1" stroke="none"/>
</g>
<g opacity="1">
<path d="M2044.88 322.215L2035.75 322.215C2036.25 319.254 2036.49 316.54 2036.49 313.579C2036.49 284.712 2013.8 261.272 1985.92 261.272C1970.86 261.272 1957.29 268.181 1947.92 279.284L1947.92 392.04L2044.88 392.04C2063.39 392.04 2078.69 376.496 2078.69 357.251C2078.69 338.006 2063.64 322.215 2044.88 322.215Z" fill="#ffffff" fill-rule="nonzero" opacity="1" stroke="none"/>
<path d="M2027.61 351.329L2018.48 351.329C2018.98 348.368 2019.22 345.654 2019.22 342.694C2019.22 313.826 1996.52 290.387 1968.64 290.387C1961.24 290.387 1954.33 292.114 1948.17 295.074L1948.17 392.04L2045.13 392.04C2051.05 392.04 2056.48 390.559 2061.41 387.845C2061.41 387.352 2061.41 386.858 2061.41 386.365C2061.17 366.873 2046.12 351.329 2027.61 351.329Z" fill="#e9c46a" fill-rule="nonzero" opacity="1" stroke="none"/>
<path d="M2044.88 399.442L1948.17 399.442C1943.97 399.442 1940.76 396.234 1940.76 392.04C1940.76 387.845 1943.97 384.638 1948.17 384.638L2045.13 384.638C2059.69 384.638 2071.53 372.301 2071.53 357.251C2071.53 342.2 2059.69 329.864 2045.13 329.864L2036 329.864C2033.78 329.864 2031.81 328.877 2030.33 327.15C2028.85 325.422 2028.35 323.202 2028.6 321.228C2029.09 318.514 2029.34 316.047 2029.34 313.826C2029.34 289.153 2010.09 268.921 1986.16 268.921C1973.83 268.921 1962.23 274.596 1953.84 284.218C1951.13 287.426 1946.44 287.673 1943.48 284.958C1940.27 282.244 1940.02 277.557 1942.74 274.596C1953.84 261.519 1969.63 254.117 1986.41 254.117C2018.48 254.117 2044.39 280.764 2044.39 313.826C2044.39 314.319 2044.39 314.813 2044.39 315.06L2045.38 315.06C2068.08 315.06 2086.58 334.058 2086.58 357.251C2086.09 380.443 2067.58 399.442 2044.88 399.442ZM1919.05 399.442C1914.86 399.442 1911.65 396.234 1911.65 392.04L1911.65 287.919C1911.65 283.725 1914.86 280.517 1919.05 280.517C1923.25 280.517 1926.45 283.725 1926.45 287.919L1926.45 392.04C1926.45 395.988 1923.25 399.442 1919.05 399.442ZM1889.94 399.442C1885.74 399.442 1882.53 396.234 1882.53 392.04L1882.53 293.841C1882.53 289.646 1885.74 286.439 1889.94 286.439C1894.13 286.439 1897.34 289.646 1897.34 293.841L1897.34 392.04C1897.34 395.988 1894.13 399.442 1889.94 399.442ZM1861.07 399.442C1856.87 399.442 1853.67 396.234 1853.67 392.04L1853.67 322.955C1853.67 318.761 1856.87 315.553 1861.07 315.553C1865.26 315.553 1868.47 318.761 1868.47 322.955L1868.47 392.04C1868.47 395.988 1865.02 399.442 1861.07 399.442ZM1831.95 370.327C1827.76 370.327 1824.55 367.12 1824.55 362.926L1824.55 351.823C1824.55 347.628 1827.76 344.421 1831.95 344.421C1836.15 344.421 1839.36 347.628 1839.36 351.823L1839.36 362.926C1839.36 367.12 1836.15 370.327 1831.95 370.327ZM1831.95 399.442C1829.98 399.442 1828.01 398.702 1826.77 397.221C1825.29 395.741 1824.55 394.014 1824.55 392.04C1824.55 390.066 1825.29 388.092 1826.77 386.858C1827.02 386.612 1827.51 386.118 1828.01 385.872C1828.5 385.625 1828.75 385.378 1829.24 385.131C1829.73 384.885 1830.23 384.885 1830.72 384.638C1833.19 384.144 1835.66 384.885 1837.38 386.612C1837.63 386.858 1838.12 387.352 1838.37 387.845C1838.62 388.339 1838.86 388.586 1839.11 389.079C1839.36 389.573 1839.36 390.066 1839.6 390.559C1839.6 391.053 1839.85 391.546 1839.85 392.04C1839.85 394.014 1839.11 395.988 1837.63 397.221C1835.9 398.455 1833.93 399.442 1831.95 399.442Z" fill="#444b54" fill-rule="nonzero" opacity="1" stroke="none"/>
</g>
</g>
</svg>
